<svg width="789" height="661" viewBox="0 0 789 661" fill="none" xmlns="http://www.w3.org/2000/svg">
<path d="M677.56 296.912H223.508V617.897H677.56V296.912Z" stroke="black" stroke-miterlimit="10" stroke-linecap="round" stroke-linejoin="round"/>
<path d="M455.297 392.148H383.679V567.808H455.297V392.148Z" fill="#75BFC0"/>
<path d="M538.911 191.093H467.293V567.809H538.911V191.093Z" fill="#75BFC0"/>
<path d="M622.876 265.52H551.258V567.457H622.876V265.52Z" fill="#F35F50"/>
<path d="M706.49 433.771H634.873V567.809H706.49V433.771Z" fill="#75BFC0"/>
<path d="M257.73 321.603C261.627 321.603 264.786 318.444 264.786 314.548C264.786 310.652 261.627 307.494 257.73 307.494C253.833 307.494 250.674 310.652 250.674 314.548C250.674 318.444 253.833 321.603 257.73 321.603Z" stroke="black" stroke-miterlimit="10" stroke-linecap="round" stroke-linejoin="round"/>
<path d="M283.484 321.603C287.381 321.603 290.54 318.444 290.54 314.548C290.54 310.652 287.381 307.494 283.484 307.494C279.587 307.494 276.428 310.652 276.428 314.548C276.428 318.444 279.587 321.603 283.484 321.603Z" stroke="black" stroke-miterlimit="10" stroke-linecap="round" stroke-linejoin="round"/>
<path d="M380.151 585.798H674.032" stroke="black" stroke-miterlimit="10" stroke-linecap="round" stroke-linejoin="round"/>
<path d="M699.434 486.329H740.005" stroke="black" stroke-miterlimit="10" stroke-linecap="round" stroke-linejoin="round"/>
<path d="M699.434 510.313H740.005" stroke="black" stroke-miterlimit="10" stroke-linecap="round" stroke-linejoin="round"/>
<path d="M699.434 534.299C709.312 534.299 719.19 534.299 729.069 534.299" stroke="black" stroke-miterlimit="10" stroke-linecap="round" stroke-linejoin="round"/>
<path d="M521.271 585.798C508.923 585.798 503.278 591.442 503.278 591.442" stroke="black" stroke-miterlimit="10" stroke-linecap="round" stroke-linejoin="round"/>
<path d="M205.163 353.349C219.98 341.709 234.092 344.531 239.737 349.116C245.734 353.702 243.618 358.993 243.618 358.993" stroke="black" stroke-miterlimit="10" stroke-linecap="round" stroke-linejoin="round"/>
<path d="M289.128 473.63C295.126 468.339 305.71 451.761 306.063 439.415C309.238 415.783 279.603 429.186 277.133 445.059C275.722 446.47 274.311 447.528 272.9 449.292C270.077 455.641 267.255 459.521 265.138 466.576C264.785 467.634 264.785 470.103 264.433 472.219C265.138 474.336 265.491 476.805 266.197 478.921C267.255 480.332 267.961 481.743 268.666 483.154C275.369 496.205 283.484 502.907 291.951 505.376C293.009 504.671 294.068 503.612 295.126 502.554C297.243 500.085 301.829 484.565 296.184 485.623C289.834 486.329 283.131 478.569 289.128 473.63Z" fill="black"/>
<path d="M268.666 482.801C275.369 495.146 282.778 502.201 290.892 504.67L269.372 559.696L298.301 574.863L326.878 499.026C343.459 485.975 332.522 464.106 332.522 464.106L336.403 456.699C336.403 456.699 327.231 446.822 306.063 440.473C285.6 433.418 253.848 455.64 268.666 482.801Z" stroke="black" stroke-miterlimit="10" stroke-linecap="round" stroke-linejoin="round"/>
<path d="M279.956 532.183L269.019 559.696L297.949 574.863L309.591 543.823C300.066 539.59 290.187 535.71 279.956 532.183Z" fill="black" stroke="black" stroke-miterlimit="10" stroke-linecap="round" stroke-linejoin="round"/>
<path d="M343.46 617.897H223.861C223.508 617.192 223.508 616.486 223.508 615.781V559.344C225.625 556.169 228.8 554.406 233.034 554.053C262.669 551.584 318.058 569.926 343.46 617.897Z" fill="black"/>
<path d="M302.182 471.866C299.007 469.397 296.185 466.928 293.01 464.459C291.598 463.401 289.834 463.048 288.423 464.459C287.365 465.517 287.012 467.986 288.423 469.044C291.598 471.514 294.421 473.983 297.596 476.452C299.007 477.51 300.771 477.863 302.182 476.452C303.241 475.394 303.594 473.277 302.182 471.866Z" fill="black"/>
<path d="M359.688 617.896H272.194C257.73 610.489 241.148 606.962 223.508 605.198C213.982 604.14 204.457 603.787 194.931 603.434C145.187 601.671 91.2085 594.969 58.3982 553.347C-16.3951 459.168 113.082 368.163 198.107 354.759C200.576 375.57 205.163 396.381 209.043 416.84C173.411 423.189 139.189 439.062 114.493 466.222C104.615 477.157 96.5005 490.208 102.851 505.023C109.554 520.543 126.136 529.008 141.659 533.241C168.471 540.648 196.343 539.943 224.214 541.354C240.09 542.059 255.613 543.47 271.136 547.703C308.18 558.285 340.99 583.329 359.688 617.896Z" fill="black" stroke="black" stroke-miterlimit="10" stroke-linecap="round" stroke-linejoin="round"/>
<path d="M197.401 355.113C218.216 350.527 245.029 355.113 246.793 362.873C248.557 370.633 247.499 373.102 247.499 373.102C247.499 373.102 250.674 381.215 247.852 387.564C244.676 393.913 252.438 402.379 244.676 406.964C239.737 410.139 208.338 417.546 208.338 417.546" fill="white"/>
<path d="M197.401 355.113C218.216 350.527 245.029 355.113 246.793 362.873C248.557 370.633 247.499 373.102 247.499 373.102C247.499 373.102 250.674 381.215 247.852 387.564C244.676 393.913 252.438 402.379 244.676 406.964C239.737 410.139 208.338 417.546 208.338 417.546" stroke="black" stroke-miterlimit="10" stroke-linecap="round" stroke-linejoin="round"/>
<path d="M400.966 169.223C400.966 192.15 382.621 210.492 359.689 210.492C336.757 210.492 318.411 192.15 318.411 169.223C318.411 139.946 336.757 127.953 359.689 127.953C382.268 127.953 400.966 146.295 400.966 169.223Z" fill="black" stroke="black" stroke-miterlimit="10" stroke-linecap="round" stroke-linejoin="round"/>
<path d="M400.966 169.223C400.966 192.15 382.62 210.492 359.688 210.492C355.455 210.492 351.574 209.787 347.693 208.728V129.011C351.574 128.306 355.455 127.953 359.688 127.953C382.267 127.953 400.966 146.295 400.966 169.223Z" fill="white" stroke="black" stroke-miterlimit="10" stroke-linecap="round" stroke-linejoin="round"/>
<path d="M702.256 50H347.693V344.883H702.256V50Z" stroke="black" stroke-miterlimit="10" stroke-linecap="round" stroke-linejoin="round"/>
<path d="M614.056 154.408C617.231 149.117 616.525 141.004 611.939 136.771C605.941 131.48 597.827 131.48 591.83 136.771C576.659 150.175 583.715 176.63 603.472 180.51C610.528 181.921 618.995 178.394 620.759 170.634C622.523 164.637 620.053 157.23 614.056 154.408Z" fill="black"/>
<path d="M702.255 210.139V344.882H636.987C597.827 235.183 619.347 235.183 688.143 210.139C692.024 208.728 696.257 210.492 702.255 210.139Z" fill="white" stroke="black" stroke-miterlimit="10" stroke-linecap="round" stroke-linejoin="round"/>
<path d="M720.953 196.384C731.89 182.627 750.236 171.34 752 152.645C752 151.94 752 150.881 752 149.823C750.236 137.478 738.593 137.125 726.245 139.594C673.326 149.823 689.202 141.358 636.987 124.779L602.766 141.358C602.766 141.358 650.747 195.325 683.204 210.493H683.557C695.552 216.137 709.664 211.551 717.073 200.969C718.484 199.558 719.542 197.795 720.953 196.384Z" fill="black"/>
<path d="M641.221 144.885C632.401 148.412 598.885 160.758 593.946 161.11C589.36 142.063 601.708 127.601 618.642 122.663C636.988 117.019 655.333 125.837 661.331 143.826C656.039 145.59 649.336 145.943 641.221 144.885Z" fill="black"/>
<path d="M686.379 211.55L661.331 172.044C661.683 170.633 665.211 167.459 665.564 166.048C686.027 161.11 675.443 137.829 661.683 142.062C661.331 142.062 660.978 142.415 660.978 142.415C654.275 126.189 635.929 117.371 618.642 122.662C600.296 128.306 586.89 144.531 595.357 166.048C600.649 179.804 615.114 197.441 632.048 198.146L648.983 224.601C670.856 262.343 688.849 221.779 686.379 211.55Z" fill="white" stroke="black" stroke-miterlimit="10" stroke-linecap="round" stroke-linejoin="round"/>
<path d="M634.165 141.005C627.462 145.238 604.53 160.052 591.124 156.525C571.014 139.241 590.066 121.252 618.289 123.016C626.757 123.369 630.285 120.547 637.341 122.663C646.161 125.485 657.803 134.303 660.978 144.18C650.394 152.292 642.633 141.711 634.165 141.005Z" fill="black"/>
<path d="M632.049 198.5C639.457 199.206 643.691 196.031 646.513 193.562" stroke="black" stroke-miterlimit="10" stroke-linecap="round" stroke-linejoin="round"/>
<path d="M623.934 168.87C623.934 168.87 623.582 180.51 627.11 187.565L634.871 183.685" stroke="black" stroke-miterlimit="10" stroke-linecap="round" stroke-linejoin="round"/>
<path d="M644.043 286.33C643.338 303.261 644.043 333.948 657.45 344.883Z" fill="white"/>
<path d="M644.043 286.33C643.338 303.261 644.043 333.948 657.45 344.883" stroke="black" stroke-miterlimit="10" stroke-linecap="round" stroke-linejoin="round"/>
<path d="M636.988 230.95V344.882" stroke="black" stroke-miterlimit="10" stroke-linecap="round" stroke-linejoin="round"/>
<path d="M665.917 241.18V344.883" stroke="black" stroke-miterlimit="10" stroke-linecap="round" stroke-linejoin="round"/>
<path d="M691.672 205.554V344.883" stroke="black" stroke-miterlimit="10" stroke-linecap="round" stroke-linejoin="round"/>
<path d="M702.255 272.573H619.7" stroke="black" stroke-miterlimit="10" stroke-linecap="round" stroke-linejoin="round"/>
<path d="M702.256 246.471H621.818" stroke="black" stroke-miterlimit="10" stroke-linecap="round" stroke-linejoin="round"/>
<path d="M702.255 298.675H622.17" stroke="black" stroke-miterlimit="10" stroke-linecap="round" stroke-linejoin="round"/>
<path d="M702.255 324.777H629.931" stroke="black" stroke-miterlimit="10" stroke-linecap="round" stroke-linejoin="round"/>
<path d="M702.256 220.722H686.733" stroke="black" stroke-miterlimit="10" stroke-linecap="round" stroke-linejoin="round"/>
<path d="M563.253 105.025L610.528 85.9775L557.256 161.109L610.881 229.892L551.258 231.655L533.971 325.129L489.165 245.059L386.854 250.35L445.418 186.153L413.314 141.004L449.299 143.473L460.942 96.5595L484.226 119.84" stroke="black" stroke-miterlimit="10" stroke-linecap="round" stroke-linejoin="round"/>
<path d="M441.184 96.5601V112.786" stroke="black" stroke-miterlimit="10" stroke-linecap="round" stroke-linejoin="round"/>
<path d="M390.735 90.5635L405.552 104.673" stroke="black" stroke-miterlimit="10" stroke-linecap="round" stroke-linejoin="round"/>
<path d="M445.418 261.637L434.128 275.041" stroke="black" stroke-miterlimit="10" stroke-linecap="round" stroke-linejoin="round"/>
<path d="M583.01 240.473L592.888 249.291" stroke="black" stroke-miterlimit="10" stroke-linecap="round" stroke-linejoin="round"/>
<path d="M639.81 96.5598L657.45 81.7451" stroke="black" stroke-miterlimit="10" stroke-linecap="round" stroke-linejoin="round"/>
<path d="M542.791 143.474C543.144 160.405 547.378 192.151 535.03 197.442C522.682 202.733 538.91 179.805 513.862 176.984" fill="white"/>
<path d="M542.791 143.474C543.144 160.405 547.378 192.151 535.03 197.442C522.682 202.733 538.91 179.805 513.862 176.984" stroke="black" stroke-miterlimit="10" stroke-linecap="round" stroke-linejoin="round"/>
<path d="M632.402 50C618.29 55.291 605.942 62.6983 595.006 71.5166C569.251 91.9749 551.964 120.193 543.144 143.474C535.383 140.652 527.974 138.183 520.212 135.714C516.331 134.655 512.803 133.244 508.923 132.186C500.455 129.717 491.988 127.248 483.168 124.779C482.815 124.779 482.815 124.779 482.463 124.426C488.813 106.437 497.633 89.1531 508.923 73.9857C509.628 73.2802 509.981 72.222 510.687 71.5166C516.331 64.1092 522.329 56.7019 528.679 50H632.402V50Z" fill="white" stroke="black" stroke-miterlimit="10" stroke-linecap="round" stroke-linejoin="round"/>
<path d="M482.463 124.427C473.995 154.056 462.706 169.224 467.645 176.984C472.584 184.744 480.699 176.984 480.699 176.984" fill="white"/>
<path d="M482.463 124.427C473.995 154.056 462.706 169.224 467.645 176.984C472.584 184.744 480.699 176.984 480.699 176.984" stroke="black" stroke-miterlimit="10" stroke-linecap="round" stroke-linejoin="round"/>
<path d="M482.462 158.288C466.587 183.685 483.874 188.976 485.638 191.092Z" fill="white"/>
<path d="M482.462 158.288C466.587 183.685 483.874 188.976 485.638 191.092" stroke="black" stroke-miterlimit="10" stroke-linecap="round" stroke-linejoin="round"/>
<path d="M513.862 176.983C500.456 175.219 496.575 210.14 486.344 210.14C475.76 210.14 478.582 201.674 493.4 162.168" fill="white"/>
<path d="M513.862 176.983C500.456 175.219 496.575 210.14 486.344 210.14C475.76 210.14 478.582 201.674 493.4 162.168" stroke="black" stroke-miterlimit="10" stroke-linecap="round" stroke-linejoin="round"/>
<path d="M508.569 132.186V73.9858" stroke="black" stroke-miterlimit="10" stroke-linecap="round" stroke-linejoin="round"/>
<path d="M535.029 50V71.5166V140.652" stroke="black" stroke-miterlimit="10" stroke-linecap="round" stroke-linejoin="round"/>
<path d="M561.489 50V71.5166V107.495" stroke="black" stroke-miterlimit="10" stroke-linecap="round" stroke-linejoin="round"/>
<path d="M587.949 50V71.5166V77.1603" stroke="black" stroke-miterlimit="10" stroke-linecap="round" stroke-linejoin="round"/>
<path d="M614.409 58.4655V50" stroke="black" stroke-miterlimit="10" stroke-linecap="round" stroke-linejoin="round"/>
<path d="M594.652 71.5166H587.949H561.489H535.029H510.333" stroke="black" stroke-miterlimit="10" stroke-linecap="round" stroke-linejoin="round"/>
<path d="M568.898 97.6187H494.105" stroke="black" stroke-miterlimit="10" stroke-linecap="round" stroke-linejoin="round"/>
<path d="M551.258 123.721H483.168" stroke="black" stroke-miterlimit="10" stroke-linecap="round" stroke-linejoin="round"/>
<path d="M537.147 617.896H457.414V637.297H537.147V617.896Z" fill="black"/>
<path d="M470.115 617.896C476.465 601.671 485.285 585.798 508.923 585.798C532.56 585.798 554.787 585.798 554.787 585.798C554.787 585.798 560.079 596.38 544.556 597.085C529.032 597.791 525.504 611.547 525.152 617.896" stroke="black" stroke-miterlimit="10" stroke-linecap="round" stroke-linejoin="round"/>
<path d="M553.375 594.616C566.076 593.558 572.074 593.911 573.485 587.915" stroke="black" stroke-miterlimit="10" stroke-linecap="round" stroke-linejoin="round"/>
</svg>
