<svg width="764" height="697" viewBox="0 0 764 697" fill="none" xmlns="http://www.w3.org/2000/svg">
<path d="M126.144 540.615C126.083 540.615 126.053 540.615 125.993 540.615C125.811 540.584 106.879 537.316 108.452 515.1C110.055 492.613 140.237 491.099 213.214 487.467C231.964 486.529 253.195 485.47 277.541 483.866C278.055 483.805 278.508 484.229 278.539 484.743C278.569 485.258 278.176 485.712 277.662 485.742C253.286 487.346 232.055 488.406 213.304 489.344C141.507 492.915 111.778 494.429 110.327 515.221C108.875 535.742 125.599 538.617 126.295 538.738C126.809 538.829 127.172 539.313 127.081 539.828C126.991 540.282 126.598 540.615 126.144 540.615Z" fill="black"/>
<path d="M289.456 525.845C280.142 525.028 270.857 524.15 261.754 523.272C201.54 517.582 149.522 512.679 131.678 527.479C127.837 530.657 125.66 534.713 125.237 539.556C124.874 543.642 126.325 547.637 129.561 551.39C146.739 571.214 210.734 581.989 255.735 586.71C256.098 586.105 256.461 585.53 256.885 584.955C212.155 580.355 147.919 569.731 130.983 550.149C128.079 546.789 126.779 543.278 127.112 539.737C127.505 535.349 129.41 531.838 132.888 528.932C150.157 514.616 201.812 519.489 261.603 525.149C270.736 526.027 279.99 526.874 289.335 527.722C289.85 527.752 290.303 527.389 290.364 526.874C290.364 526.36 289.971 525.906 289.456 525.845Z" fill="black"/>
<path d="M489.242 639.252C488.819 639.252 488.426 638.98 488.335 638.526C481.198 609.743 455.219 608.835 432.325 608.048C426.639 607.836 421.286 607.654 416.296 607.079C413.937 606.807 370.478 612.164 367.726 612.648C306.604 623.574 264.113 620.154 254.102 603.478C250.564 597.606 251.653 590.463 257.187 583.381C267.984 569.519 337.997 551.238 359.197 545.972C366.244 544.216 371.96 536.166 379.218 525.996C386.628 515.585 395.821 502.631 410.096 491.19C410.489 490.857 411.094 490.948 411.427 491.341C411.759 491.735 411.699 492.34 411.276 492.673C397.213 503.932 388.109 516.795 380.76 527.086C373.29 537.588 367.393 545.881 359.681 547.788C344.711 551.511 269.405 570.79 258.699 584.531C255.161 589.071 251.774 595.881 255.766 602.509C259.365 608.502 278.055 626.752 367.453 610.802C367.847 610.741 413.725 604.9 416.568 605.233C421.498 605.808 426.821 605.99 432.446 606.171C456.035 606.988 482.74 607.927 490.21 638.102C490.331 638.617 490.029 639.101 489.514 639.252C489.393 639.252 489.333 639.252 489.242 639.252Z" fill="black"/>
<path d="M630.991 567.037C630.598 567.037 630.235 566.795 630.114 566.402C582.723 426.057 520.392 430.779 474.877 434.229C471.762 434.471 468.707 434.683 465.773 434.865C434.472 436.772 405.65 440.282 377.766 443.733C353.451 446.729 330.496 449.544 308.177 450.966C278.69 452.843 255.675 456.172 238.89 458.594C227.942 460.167 219.293 461.439 212.76 461.741C118.765 466.13 118.734 486.59 118.402 500.119C118.402 500.633 118.009 501.057 117.434 501.027C116.92 501.027 116.496 500.573 116.527 500.058C116.859 485.773 116.92 464.314 212.669 459.834C219.111 459.532 227.73 458.291 238.618 456.717C255.433 454.296 278.508 450.966 308.056 449.06C330.345 447.637 353.269 444.822 377.554 441.856C405.469 438.436 434.321 434.895 465.683 432.988C468.616 432.807 471.671 432.595 474.756 432.353C520.876 428.872 584.054 424.09 631.898 565.796C632.08 566.281 631.808 566.825 631.324 566.977C631.203 567.007 631.112 567.037 630.991 567.037Z" fill="black"/>
<path d="M276.512 616.583C276.331 616.583 276.119 616.522 275.968 616.401C275.545 616.099 275.454 615.493 275.756 615.1C282.107 606.413 308.298 607.957 309.417 608.048C309.931 608.078 310.324 608.532 310.294 609.047C310.263 609.561 309.87 609.955 309.296 609.924C309.024 609.894 283.015 608.381 277.268 616.22C277.087 616.462 276.784 616.583 276.512 616.583Z" fill="black"/>
<path d="M251.531 346.608C251.531 346.608 222.347 351.814 217.236 351.905L226.49 403.358C226.49 403.358 241.732 398.424 239.857 386.166L259.364 380.143L251.531 346.608Z" fill="black"/>
<path d="M226.49 404.296C226.309 404.296 226.157 404.235 226.006 404.174C225.764 404.023 225.613 403.811 225.553 403.539L216.298 352.086C216.238 351.814 216.328 351.542 216.51 351.33C216.691 351.118 216.933 350.997 217.205 350.997C222.196 350.906 251.078 345.761 251.35 345.73C251.834 345.64 252.318 345.942 252.439 346.427L260.272 379.962C260.393 380.446 260.09 380.93 259.637 381.081L240.856 386.862C242.096 399.15 226.914 404.235 226.762 404.265C226.672 404.296 226.581 404.296 226.49 404.296ZM218.355 352.782L227.216 402.056C230.482 400.724 240.402 395.821 238.92 386.287C238.86 385.833 239.132 385.379 239.585 385.258L258.276 379.508L250.836 347.698C246.148 348.515 224.857 352.268 218.355 352.782Z" fill="black"/>
<path d="M99.0762 334.017C99.0762 334.017 75.6378 332.807 70.6779 331.475L65.2947 383.472C65.2947 383.472 81.3235 382.958 82.8961 370.67L103.31 370.307L99.0762 334.017Z" fill="black"/>
<path d="M65.2946 384.411C65.0224 384.411 64.7805 384.29 64.599 384.108C64.4175 383.896 64.3268 383.654 64.357 383.382L69.7403 331.384C69.7706 331.112 69.9218 330.87 70.1335 330.718C70.3754 330.567 70.6476 330.507 70.9198 330.597C75.7284 331.899 98.8946 333.109 99.1063 333.109C99.56 333.14 99.9229 333.473 99.9834 333.927L104.248 370.216C104.278 370.488 104.187 370.73 104.006 370.942C103.824 371.154 103.582 371.245 103.31 371.275L83.6824 371.608C81.4746 383.745 65.5063 384.411 65.2946 384.411C65.3248 384.411 65.3248 384.411 65.2946 384.411ZM71.4944 332.625L66.3531 382.443C69.8613 382.05 80.7488 380.113 81.9585 370.549C82.019 370.095 82.4122 369.732 82.8658 369.732L102.252 369.399L98.199 334.925C94.2977 334.683 77.3918 333.745 71.4944 332.625Z" fill="black"/>
<path d="M348.914 272.759C343.47 241.978 316.342 207.142 288.095 197.396C277.298 193.673 266.653 191.645 256.249 191.434C255.856 189.981 255.463 188.498 255.07 186.924C254.525 186.803 253.981 186.712 253.437 186.682C242.095 185.653 233.355 192.796 231.117 203.691C229.696 210.592 228.274 217.493 226.823 224.393C226.55 225.665 224.312 233.292 223.496 236.046C209.312 285.168 163.615 333.443 93.7834 331.506C95.2351 344.49 94.479 362.165 95.2049 375.21C175.682 382.807 233.022 327.087 254.797 268.794C258.245 259.623 263.447 247.002 265.957 234.805C266.078 234.775 266.169 234.563 266.29 234.2C268.951 234.563 271.431 235.077 273.609 235.895C288.095 241.191 303.821 266.282 306.332 280.023C309.084 295.095 305.666 309.532 294.749 320.368C281.865 333.14 264.687 339.526 247.146 342.825C249.414 357.686 252.136 372.486 254.918 387.256C283.589 381.687 311.019 369.671 330.768 347.516C349.549 326.512 353.813 300.543 348.914 272.759Z" fill="white"/>
<path d="M254.888 388.255C254.707 388.255 254.525 388.194 254.374 388.103C254.163 387.952 254.011 387.74 253.981 387.498C251.32 373.424 248.537 358.321 246.178 343.037C246.088 342.522 246.42 342.068 246.934 341.978C267.5 338.073 282.924 330.809 294.053 319.762C304.306 309.593 308.237 295.912 305.364 280.265C302.914 266.857 287.551 242.069 273.246 236.863C271.431 236.197 269.284 235.683 266.834 235.32C266.834 235.35 266.804 235.35 266.804 235.38C264.657 245.731 260.604 256.324 257.338 264.859C256.763 266.373 256.189 267.825 255.675 269.218C235.079 324.332 182.577 376.935 109.722 376.935C104.943 376.935 100.074 376.693 95.084 376.239C94.6304 376.209 94.2675 375.815 94.2372 375.361C93.9348 370.065 93.9045 364.163 93.8441 357.898C93.7533 348.818 93.6928 339.405 92.8158 331.687C92.7855 331.415 92.8763 331.142 93.0577 330.93C93.2392 330.719 93.5719 330.658 93.7836 330.628C163.312 332.625 208.526 284.411 222.559 235.834L223.254 233.443C224.222 230.174 225.674 225.211 225.855 224.242L230.119 203.54C232.539 191.888 241.914 184.775 253.467 185.774C254.042 185.834 254.616 185.925 255.191 186.046C255.554 186.107 255.826 186.379 255.917 186.742C256.249 188.044 256.582 189.315 256.915 190.556C267.046 190.828 277.631 192.856 288.367 196.549C316.07 206.082 344.226 240.919 349.821 272.638C355.205 303.116 349.005 328.539 331.434 348.243C313.409 368.461 287.702 381.929 255.07 388.255C255.009 388.255 254.949 388.255 254.888 388.255ZM248.174 343.642C250.443 358.261 253.104 372.698 255.644 386.197C287.43 379.871 312.471 366.675 330.042 346.941C347.22 327.692 353.239 302.783 347.976 272.91C342.472 241.796 314.921 207.626 287.763 198.274C276.966 194.551 266.35 192.584 256.189 192.372C255.765 192.372 255.402 192.069 255.312 191.676C254.949 190.404 254.616 189.103 254.283 187.741C253.981 187.681 253.648 187.65 253.316 187.62C242.761 186.682 234.202 193.219 231.994 203.873L227.73 224.636C227.518 225.665 226.097 230.477 225.069 233.988L224.373 236.379C210.431 284.684 166.004 332.565 97.8664 332.565C96.8381 332.565 95.8401 332.565 94.8118 332.535C95.5679 340.131 95.6586 349.12 95.7191 357.867C95.7796 363.8 95.8099 369.399 96.082 374.423C175.107 381.475 232.267 326.421 253.921 268.522C254.435 267.129 255.009 265.677 255.584 264.163C258.85 255.628 262.933 244.974 265.05 234.684C265.08 234.472 265.201 234.321 265.352 234.169C265.352 234.139 265.383 234.079 265.413 233.988C265.534 233.534 265.957 233.261 266.441 233.322C269.314 233.685 271.824 234.29 273.941 235.047C288.821 240.495 304.729 266.07 307.269 279.902C310.203 295.973 305.999 310.592 295.414 321.094C284.133 332.232 268.679 339.617 248.174 343.642Z" fill="black"/>
<path d="M82.896 371.608C82.4121 371.608 81.9887 371.245 81.9584 370.731L81.3536 363.225C81.3233 362.71 81.6862 362.256 82.2004 362.226C82.7145 362.196 83.1682 362.559 83.1984 363.073L83.8033 370.579C83.8335 371.094 83.4706 371.548 82.9564 371.578C82.9564 371.608 82.9262 371.608 82.896 371.608Z" fill="white"/>
<path d="M87.1905 371.881C86.6763 371.881 86.2529 371.457 86.2529 370.942L86.3134 363.224C86.3134 362.71 86.7368 362.286 87.2509 362.286C87.7651 362.286 88.1885 362.71 88.1885 363.224L88.128 370.942C88.128 371.457 87.7046 371.881 87.1905 371.881Z" fill="white"/>
<path d="M239.858 387.104C239.464 387.104 239.132 386.862 238.98 386.499L236.319 379.447C236.138 378.963 236.38 378.418 236.863 378.237C237.347 378.055 237.892 378.297 238.073 378.781L240.735 385.833C240.916 386.318 240.674 386.862 240.19 387.044C240.069 387.105 239.948 387.104 239.858 387.104Z" fill="white"/>
<path d="M244.031 386.166C243.608 386.166 243.245 385.894 243.124 385.47L241.067 378.055C240.916 377.571 241.219 377.026 241.733 376.905C242.247 376.753 242.761 377.056 242.882 377.571L244.938 384.986C245.09 385.47 244.787 386.015 244.273 386.136C244.213 386.166 244.122 386.166 244.031 386.166Z" fill="white"/>
<path d="M101.193 331.324L104.883 374.846L101.193 331.324Z" fill="white"/>
<path d="M104.913 375.785C104.429 375.785 104.036 375.422 103.976 374.937L100.286 331.415C100.256 330.9 100.619 330.446 101.133 330.386C101.586 330.355 102.101 330.718 102.161 331.233L105.851 374.756C105.881 375.27 105.518 375.724 105.004 375.785C104.943 375.785 104.943 375.785 104.913 375.785Z" fill="black"/>
<path d="M263.991 386.62C263.568 386.62 263.175 386.318 263.084 385.894L253.285 342.583C253.164 342.068 253.497 341.584 253.981 341.463C254.495 341.342 254.979 341.675 255.1 342.159L264.899 385.47C265.02 385.985 264.687 386.469 264.203 386.59C264.112 386.62 264.052 386.62 263.991 386.62Z" fill="black"/>
<path d="M579.003 313.467L315.012 413.375L240.251 215.525L504.243 115.617L579.003 313.467Z" fill="#75BFC0"/>
<path d="M243.578 225.604C243.185 225.604 242.852 225.362 242.701 224.999C242.519 224.515 242.761 223.97 243.245 223.788L507.327 123.849C507.811 123.668 508.356 123.91 508.537 124.394C508.719 124.878 508.477 125.423 507.993 125.605L243.91 225.544C243.82 225.574 243.699 225.604 243.578 225.604Z" fill="black"/>
<path d="M316.978 373.878C316.584 373.878 316.252 373.636 316.101 373.273C315.919 372.789 316.161 372.244 316.645 372.062L545.282 285.531C545.766 285.349 546.311 285.592 546.492 286.076C546.674 286.56 546.432 287.105 545.948 287.286L317.31 373.818C317.22 373.848 317.099 373.878 316.978 373.878Z" fill="black"/>
<path d="M322.784 352.843C322.633 352.843 322.482 352.813 322.33 352.722C321.877 352.48 321.695 351.905 321.967 351.451L353.753 293.794C353.965 293.4 354.418 293.219 354.842 293.34L402.202 308.049L422.707 193.34C422.768 193.038 422.949 192.796 423.191 192.674C423.433 192.553 423.766 192.523 424.008 192.644L453.283 206.385L480.078 175.604C480.411 175.211 481.016 175.181 481.409 175.514C481.802 175.846 481.832 176.452 481.5 176.845L454.251 208.141C453.978 208.473 453.525 208.564 453.132 208.383L424.34 194.854L403.866 309.411C403.805 309.684 403.654 309.895 403.442 310.047C403.2 310.198 402.928 310.228 402.686 310.138L355.023 295.337L323.601 352.359C323.449 352.662 323.117 352.843 322.784 352.843Z" fill="black"/>
<path d="M271.341 267.432C270.948 267.432 270.615 267.19 270.464 266.826C270.282 266.342 270.524 265.797 271.008 265.616L276.301 263.618C278.72 262.71 279.96 259.986 279.053 257.535C278.599 256.354 277.722 255.416 276.573 254.902C275.424 254.387 274.153 254.357 272.974 254.78C269.587 256.052 265.776 254.357 264.476 250.937C263.841 249.302 263.901 247.486 264.627 245.882C265.353 244.278 266.653 243.037 268.317 242.432L273.609 240.434C274.093 240.253 274.637 240.495 274.819 240.979C275 241.463 274.758 242.008 274.274 242.19L268.982 244.187C267.802 244.641 266.865 245.519 266.351 246.669C265.837 247.819 265.806 249.09 266.23 250.271C267.137 252.692 269.859 253.933 272.309 253.025C273.942 252.389 275.756 252.45 277.359 253.176C278.962 253.903 280.202 255.204 280.807 256.869C282.077 260.259 280.384 264.072 276.966 265.374L271.674 267.371C271.553 267.432 271.462 267.432 271.341 267.432Z" fill="black"/>
<path d="M277.843 268.673C277.45 268.673 277.117 268.431 276.966 268.067L266.532 240.465C266.351 239.981 266.593 239.436 267.077 239.254C267.56 239.073 268.105 239.315 268.286 239.799L278.72 267.402C278.902 267.886 278.66 268.431 278.176 268.612C278.055 268.643 277.964 268.673 277.843 268.673Z" fill="black"/>
<path d="M254.193 288.104C253.8 288.104 253.467 287.861 253.316 287.498C253.134 287.014 253.376 286.469 253.86 286.288L320.365 261.106C320.667 260.985 321.03 261.046 321.302 261.257L349.549 284.502C349.942 284.835 350.003 285.44 349.67 285.834C349.337 286.227 348.733 286.288 348.339 285.955L320.486 263.073L254.465 288.043C254.405 288.104 254.284 288.104 254.193 288.104Z" fill="black"/>
<path d="M546.068 196.307C545.675 196.307 545.343 196.065 545.191 195.701C545.01 195.217 545.252 194.672 545.736 194.491L551.028 192.493C553.448 191.585 554.688 188.861 553.78 186.41C553.327 185.229 552.45 184.291 551.3 183.777C550.151 183.262 548.881 183.201 547.702 183.655C544.314 184.927 540.504 183.232 539.203 179.812C538.568 178.177 538.629 176.361 539.354 174.757C540.08 173.153 541.381 171.912 543.044 171.307L548.337 169.309C548.821 169.128 549.365 169.37 549.546 169.854C549.728 170.338 549.486 170.883 549.002 171.065L543.709 173.062C542.53 173.516 541.592 174.394 541.078 175.544C540.564 176.694 540.534 177.965 540.957 179.146C541.865 181.567 544.586 182.808 547.036 181.9C548.669 181.264 550.484 181.325 552.087 182.051C553.69 182.778 554.93 184.079 555.534 185.744C556.805 189.134 555.111 192.947 551.694 194.249L546.401 196.246C546.28 196.276 546.189 196.307 546.068 196.307Z" fill="black"/>
<path d="M552.571 197.547C552.178 197.547 551.845 197.305 551.694 196.942L541.26 169.339C541.078 168.855 541.32 168.31 541.804 168.129C542.288 167.947 542.832 168.189 543.014 168.673L553.448 196.276C553.629 196.76 553.387 197.305 552.903 197.487C552.782 197.517 552.692 197.547 552.571 197.547Z" fill="black"/>
<path d="M564.365 189.376C563.972 189.376 563.64 189.133 563.488 188.77C563.307 188.286 563.549 187.741 564.033 187.56L569.325 185.562C570.505 185.108 571.442 184.23 571.956 183.08C572.471 181.93 572.501 180.659 572.077 179.479C571.17 177.057 568.448 175.816 565.999 176.724C564.365 177.36 562.551 177.299 560.948 176.573C559.345 175.847 558.105 174.545 557.5 172.881C556.865 171.246 556.926 169.43 557.652 167.826C558.377 166.222 559.678 164.981 561.341 164.376L566.634 162.378C567.118 162.197 567.662 162.439 567.843 162.923C568.025 163.407 567.783 163.952 567.299 164.134L562.007 166.131C560.827 166.585 559.89 167.463 559.375 168.613C558.861 169.763 558.831 171.034 559.254 172.215C559.708 173.395 560.585 174.333 561.734 174.848C562.884 175.362 564.154 175.423 565.333 174.969C568.721 173.698 572.531 175.393 573.832 178.813C574.467 180.447 574.406 182.263 573.68 183.867C572.955 185.471 571.654 186.712 569.991 187.318L564.698 189.315C564.607 189.345 564.486 189.376 564.365 189.376Z" fill="black"/>
<path d="M570.868 190.617C570.475 190.617 570.142 190.375 569.991 190.011L559.557 162.409C559.375 161.924 559.617 161.38 560.101 161.198C560.585 161.016 561.13 161.259 561.311 161.743L571.745 189.346C571.926 189.83 571.684 190.375 571.201 190.556C571.11 190.586 570.989 190.617 570.868 190.617Z" fill="black"/>
<path d="M516.521 227.42C516.128 227.42 515.795 227.178 515.644 226.815L493.929 169.339C493.839 169.097 493.839 168.855 493.96 168.613C494.05 168.401 494.262 168.22 494.474 168.129L584.114 134.2C584.598 134.019 585.143 134.261 585.324 134.745L607.039 192.221C607.129 192.463 607.129 192.705 607.008 192.947C606.918 193.159 606.706 193.341 606.494 193.431L516.854 227.36C516.733 227.42 516.612 227.42 516.521 227.42ZM496.016 169.551L517.065 225.271L604.952 192.009L583.903 136.289L496.016 169.551Z" fill="black"/>
<path d="M362.5 517C372.165 517 380 509.165 380 499.5C380 489.835 372.165 482 362.5 482C352.835 482 345 489.835 345 499.5C345 509.165 352.835 517 362.5 517Z" fill="#75BFC0"/>
<path d="M302.5 540C312.165 540 320 532.165 320 522.5C320 512.835 312.165 505 302.5 505C292.835 505 285 512.835 285 522.5C285 532.165 292.835 540 302.5 540Z" fill="#75BFC0"/>
<path d="M354.5 567C364.165 567 372 559.165 372 549.5C372 539.835 364.165 532 354.5 532C344.835 532 337 539.835 337 549.5C337 559.165 344.835 567 354.5 567Z" fill="#75BFC0"/>
<path d="M378.371 474.18C378.22 474.18 378.099 474.15 377.948 474.09L369.177 469.701C368.724 469.459 368.512 468.914 368.754 468.43C368.996 467.976 369.54 467.764 370.024 468.006L378.794 472.395C379.248 472.637 379.46 473.182 379.218 473.666C379.067 473.999 378.734 474.18 378.371 474.18Z" fill="black"/>
<path d="M373.381 436.559C373.078 436.559 372.806 436.438 372.625 436.166C372.322 435.742 372.413 435.167 372.836 434.864L377.221 431.717C377.645 431.414 378.219 431.505 378.522 431.929C378.824 432.352 378.734 432.927 378.31 433.23L373.925 436.378C373.744 436.499 373.562 436.559 373.381 436.559Z" fill="black"/>
<path d="M188.626 413.225C188.505 413.225 188.414 413.194 188.293 413.164C187.81 412.982 187.568 412.438 187.719 411.953L191.439 401.754C191.62 401.269 192.165 401.027 192.648 401.179C193.132 401.36 193.374 401.905 193.223 402.389L189.503 412.589C189.352 412.982 188.989 413.225 188.626 413.225Z" fill="black"/>
<path d="M439.674 114.921L433.504 126.24L439.674 114.921Z" fill="black"/>
<path d="M433.504 127.179C433.353 127.179 433.202 127.148 433.05 127.058C432.597 126.815 432.415 126.24 432.687 125.786L438.857 114.467C439.099 114.013 439.674 113.831 440.127 114.104C440.581 114.346 440.762 114.921 440.49 115.375L434.321 126.694C434.169 127.027 433.837 127.179 433.504 127.179Z" fill="black"/>
<path d="M574.074 285.652C565.757 286.56 554.718 288.285 548.156 281.808C541.744 275.483 540.655 264.587 539.597 256.143C538.629 248.576 533.79 242.039 525.504 242.039C518.638 242.039 510.443 248.546 511.41 256.143C513.467 272.486 516.068 289.526 528.225 301.754C540.444 314.042 557.743 315.646 574.074 313.86C581.635 313.043 588.167 307.958 588.167 299.756C588.167 292.765 581.695 284.805 574.074 285.652Z" fill="white"/>
<path d="M563.519 315.404C548.065 315.404 536.24 311.106 527.56 302.389C515.644 290.404 512.771 274.393 510.473 256.233C510.049 252.934 511.199 249.544 513.709 246.699C516.733 243.279 521.36 241.07 525.504 241.07C533.488 241.07 539.385 246.941 540.534 255.991L540.686 257.171C541.684 265.253 542.954 275.301 548.821 281.112C554.658 286.893 564.517 285.773 572.441 284.865L573.983 284.683C577.34 284.32 580.788 285.531 583.631 288.073C587.018 291.1 589.105 295.549 589.105 299.695C589.105 308.957 581.604 313.921 574.165 314.738C570.445 315.192 566.906 315.404 563.519 315.404ZM525.504 242.977C521.874 242.977 517.792 244.944 515.13 247.971C512.983 250.392 511.985 253.267 512.348 256.021C514.586 273.818 517.398 289.526 528.891 301.088C539.022 311.257 553.781 315.161 573.983 312.922C580.576 312.195 587.23 307.837 587.23 299.756C587.23 296.185 585.324 292.159 582.391 289.526C579.941 287.317 577.038 286.288 574.195 286.59L572.652 286.772C564.336 287.71 553.992 288.89 547.49 282.474C541.139 276.209 539.839 265.797 538.81 257.444L538.659 256.263C537.873 250.119 533.972 242.977 525.504 242.977Z" fill="black"/>
<path d="M511.713 257.595L539.325 254.478C537.359 239.557 519.455 223.304 512.227 223.758C504.999 224.182 515.735 229.781 515.221 231.597C514.858 232.898 496.228 226.573 493.174 230.326C490.119 234.079 498.134 230.447 502.821 234.351C502.821 234.351 491.994 231.143 490.905 233.988C489.817 236.833 501.188 240.132 501.188 240.132C501.188 240.132 490.331 237.559 489.665 240.616C489 243.673 501.279 246.518 503.577 248.062C505.543 249.363 511.017 249.908 511.35 256.082L511.713 257.595Z" fill="white"/>
<path d="M511.713 258.534C511.229 258.534 510.836 258.17 510.775 257.686C510.745 257.414 510.836 257.141 511.017 256.96C510.715 256.808 510.473 256.506 510.473 256.143C510.231 251.936 507.358 250.725 504.999 249.756C504.243 249.454 503.607 249.181 503.093 248.848C502.458 248.425 500.674 247.789 498.799 247.123C493.567 245.247 488.153 243.31 488.758 240.434C488.879 239.829 489.272 239.315 489.847 238.951C490.694 238.407 492.055 238.225 493.567 238.195C491.994 237.378 490.663 236.409 490.149 235.41C489.847 234.835 489.817 234.23 490.028 233.655C490.301 232.959 490.905 232.505 491.692 232.232C491.692 232.202 491.661 232.202 491.661 232.172C491.268 231.324 491.843 230.447 492.448 229.72C494.625 227.087 501.49 228.267 509.565 229.932C511.047 230.235 512.65 230.568 513.709 230.719C513.255 230.235 512.59 229.66 512.106 229.236C510.08 227.45 508.356 225.907 508.9 224.363C509.323 223.122 510.987 222.88 512.197 222.789C520.181 222.244 538.266 239.163 540.262 254.327C540.292 254.569 540.232 254.841 540.081 255.023C539.93 255.235 539.688 255.356 539.446 255.386L511.834 258.503C511.803 258.534 511.773 258.534 511.713 258.534ZM493.567 240.071C492.387 240.071 491.389 240.192 490.875 240.555C490.663 240.707 490.633 240.798 490.633 240.858C490.361 242.16 496.954 244.52 499.464 245.398C501.642 246.185 503.335 246.79 504.182 247.335C504.545 247.577 505.12 247.819 505.755 248.092C508.265 249.151 512.076 250.725 512.378 256.112C512.378 256.294 512.348 256.475 512.257 256.627L538.296 253.691C535.786 239.557 519.001 224.726 512.59 224.726C512.499 224.726 512.438 224.726 512.348 224.726C510.957 224.817 510.684 225.089 510.684 225.089C510.775 225.513 512.469 227.057 513.406 227.874C515.221 229.478 516.552 230.658 516.189 231.869C515.826 233.17 514.314 232.868 509.233 231.809C504.454 230.81 495.563 228.963 493.93 230.961C493.809 231.112 493.718 231.233 493.657 231.324C494.051 231.355 494.655 231.385 495.139 231.385C497.408 231.445 500.855 231.506 503.456 233.655C503.789 233.927 503.91 234.442 503.698 234.835C503.487 235.229 503.033 235.41 502.609 235.289C497.377 233.746 492.236 233.292 491.843 234.381C491.843 234.411 491.813 234.472 491.873 234.623C492.629 236.137 497.952 238.255 501.521 239.284C502.005 239.436 502.307 239.92 502.156 240.434C502.035 240.919 501.521 241.221 501.037 241.1C498.98 240.586 495.895 240.071 493.567 240.071Z" fill="black"/>
<path d="M517.275 458.253C521.52 457.742 524.547 453.883 524.036 449.635C523.525 445.387 519.669 442.357 515.424 442.869C511.179 443.38 508.152 447.238 508.663 451.487C509.174 455.735 513.03 458.765 517.275 458.253Z" fill="black"/>
<path d="M601.104 478.925C605.349 478.413 608.376 474.555 607.865 470.306C607.354 466.058 603.498 463.029 599.253 463.54C595.008 464.051 591.981 467.91 592.492 472.158C593.003 476.406 596.859 479.436 601.104 478.925Z" fill="black"/>
<path d="M558.194 468.362C562.439 467.85 565.466 463.992 564.955 459.743C564.444 455.495 560.588 452.466 556.343 452.977C552.098 453.488 549.071 457.347 549.582 461.595C550.093 465.844 553.948 468.873 558.194 468.362Z" fill="black"/>
<path d="M594.76 352.54C587.925 350.845 582.179 347.002 578.096 341.887C572.289 334.653 569.809 324.877 572.199 315.162L580.364 282.05C582.391 273.818 587.532 267.19 594.216 263.104C600.99 258.957 609.367 257.414 617.684 259.472C627.543 261.893 635.134 268.854 638.764 277.571C641.213 283.473 641.879 290.162 640.245 296.85L632.08 329.962C629.902 338.799 624.156 345.791 616.716 349.756C610.244 353.236 602.472 354.447 594.76 352.54Z" fill="black"/>
<path d="M607.008 389.949L545.313 374.725C542.016 373.908 539.476 371.638 538.175 368.763C537.238 366.675 536.966 364.283 537.54 361.892C538.417 358.351 540.988 355.658 544.163 354.477C546.069 353.781 548.216 353.6 550.333 354.144L612.029 369.368C615.446 370.216 618.077 372.637 619.317 375.664C620.134 377.661 620.345 379.931 619.801 382.201C619.196 384.653 617.775 386.711 615.9 388.133C613.48 389.979 610.244 390.736 607.008 389.949Z" fill="black"/>
<path d="M603.168 466.613L601.353 466.159C602.26 462.467 599.992 458.714 596.303 457.806L526.078 440.463C524.294 440.009 522.449 440.312 520.846 441.25C519.273 442.189 518.154 443.702 517.731 445.518L515.917 445.064C517.066 440.373 521.844 437.467 526.532 438.647L596.756 455.99C601.444 457.14 604.317 461.892 603.168 466.613Z" fill="black"/>
<path d="M575.817 383.247L558.418 453.61L560.239 454.061L577.637 383.697L575.817 383.247Z" fill="black"/>
<path d="M474.181 443.551L444.513 455.96L449.503 474.059C437.315 480.173 442.335 493.157 442.335 493.157L488.153 476.511L474.181 443.551Z" fill="black"/>
<path d="M442.305 494.096C441.942 494.096 441.579 493.853 441.428 493.49C441.367 493.369 436.438 480.113 448.353 473.575L443.575 456.202C443.454 455.748 443.696 455.264 444.119 455.082L473.788 442.673C474.241 442.461 474.816 442.704 475.028 443.188L489 476.148C489.091 476.39 489.091 476.662 489 476.904C488.909 477.147 488.697 477.328 488.455 477.419L442.637 494.065C442.516 494.065 442.426 494.096 442.305 494.096ZM445.631 456.505L450.41 473.787C450.531 474.211 450.319 474.665 449.926 474.877C440.309 479.689 442.093 489.011 442.94 491.916L486.913 475.966L473.697 444.762L445.631 456.505Z" fill="black"/>
<path d="M449.472 474.968C448.988 474.968 448.565 474.574 448.535 474.09C448.504 473.575 448.898 473.121 449.412 473.091L455.823 472.667C456.337 472.637 456.791 473.03 456.821 473.545C456.852 474.059 456.458 474.514 455.944 474.544L449.533 474.968C449.533 474.968 449.502 474.968 449.472 474.968Z" fill="white"/>
<path d="M447.96 468.824C447.476 468.824 447.053 468.43 447.023 467.946C446.992 467.431 447.386 466.977 447.9 466.947L454.311 466.523C454.856 466.463 455.279 466.887 455.309 467.401C455.339 467.916 454.946 468.37 454.432 468.4L448.021 468.824C447.99 468.824 447.96 468.824 447.96 468.824Z" fill="white"/>
<path d="M586.322 336.772C585.959 338.134 585.233 339.647 584.266 341.251C581.846 345.216 577.794 349.665 573.227 353.449C566.362 359.139 558.317 363.164 553.115 361.318C551.422 360.743 549.668 360.137 547.883 359.562C545.434 358.745 542.863 357.958 540.232 357.232C529.737 354.296 518.185 352.117 507.267 352.51C494.716 352.994 482.951 356.838 474.272 366.766C473.999 367.099 473.727 367.401 473.455 367.734C471.731 369.823 470.34 371.971 469.161 374.241C463.989 384.138 463.596 395.64 465.562 407.232C467.255 417.31 470.703 427.48 474.272 436.802C474.725 437.982 475.179 439.102 475.602 440.252C476.782 443.248 477.961 446.124 479.05 448.848C477.447 449.302 475.844 449.756 474.272 450.24C467.406 452.237 460.602 454.295 453.797 456.414C449.745 457.685 445.48 458.745 441.337 460.016C441.337 459.986 441.307 459.985 441.307 459.955C438.766 453.539 436.377 446.941 434.23 440.222C430.782 429.386 428.091 418.279 426.82 407.201C425.52 396.033 425.701 384.895 428.03 374.211C430.298 364.011 434.502 354.205 441.307 345.065C442.275 343.763 443.273 342.492 444.331 341.221C444.754 340.737 445.148 340.252 445.571 339.798C453.827 330.446 463.626 323.939 474.272 319.762C484.645 315.676 495.865 313.77 507.267 313.497C518.245 313.225 529.435 314.466 540.232 316.705C548.276 318.37 556.14 320.61 563.579 323.213C566.513 324.242 569.93 324.877 573.197 325.573C576.342 326.239 579.366 326.905 581.755 327.964C585.445 329.599 587.623 332.081 586.322 336.772Z" fill="white"/>
<path d="M441.337 460.984C441.125 460.984 440.944 460.924 440.793 460.803C440.641 460.682 440.52 460.5 440.46 460.318C437.768 453.509 435.379 446.85 433.353 440.555C429.512 428.448 427.092 417.613 425.913 407.353C424.522 395.337 424.945 384.138 427.153 374.06C429.542 363.255 434.079 353.327 440.581 344.55C441.488 343.309 442.516 342.038 443.635 340.676L444.875 339.223C452.799 330.204 462.598 323.394 473.939 318.945C483.889 315.041 495.079 312.892 507.237 312.589C517.761 312.347 528.921 313.437 540.413 315.828C548.155 317.432 556.049 319.641 563.882 322.365C566.452 323.243 569.477 323.878 572.38 324.484L573.378 324.696C576.584 325.362 579.638 326.058 582.118 327.147C586.806 329.205 588.5 332.444 587.199 337.044C586.806 338.467 586.08 340.041 585.022 341.766C582.572 345.791 578.459 350.331 573.771 354.175C565.575 360.955 557.712 363.951 552.752 362.226C551.059 361.651 549.335 361.045 547.551 360.47C544.98 359.623 542.439 358.836 539.929 358.14C527.409 354.659 516.733 353.116 507.237 353.449C493.415 353.963 482.528 358.654 474.937 367.401C474.695 367.704 474.453 367.976 474.211 368.249C472.517 370.337 471.157 372.395 469.977 374.665C465.41 383.382 464.261 394.005 466.469 407.08C468.253 417.794 472.034 428.418 475.118 436.469L476.449 439.919C477.477 442.522 478.475 445.034 479.473 447.455L479.897 448.515C479.988 448.757 479.988 449.029 479.867 449.271C479.746 449.513 479.534 449.695 479.292 449.756C477.689 450.21 476.116 450.664 474.514 451.148C467.164 453.297 460.451 455.325 454.039 457.322C451.862 458.018 449.654 458.624 447.386 459.259C445.45 459.804 443.484 460.349 441.549 460.954C441.518 460.984 441.428 460.984 441.337 460.984ZM510.261 314.435C509.263 314.435 508.295 314.435 507.297 314.466C495.351 314.768 484.373 316.857 474.635 320.67C463.566 324.998 454.009 331.657 446.297 340.434L445.057 341.857C443.968 343.158 442.97 344.399 442.093 345.64C435.742 354.205 431.326 363.89 428.998 374.453C426.82 384.35 426.427 395.337 427.788 407.141C428.937 417.25 431.357 427.994 435.137 439.98C437.073 446.033 439.341 452.389 441.912 458.896C443.575 458.381 445.269 457.927 446.962 457.443C449.2 456.808 451.408 456.202 453.555 455.536C459.967 453.509 466.681 451.481 474.06 449.332C475.33 448.969 476.6 448.575 477.84 448.212L477.81 448.121C476.842 445.7 475.814 443.188 474.786 440.585L473.455 437.135C470.34 428.993 466.529 418.279 464.715 407.383C462.447 393.884 463.656 382.898 468.404 373.787C469.644 371.396 471.066 369.217 472.79 367.129C473.092 366.735 473.364 366.433 473.636 366.13C481.59 356.99 492.932 352.087 507.297 351.542C516.945 351.209 527.862 352.752 540.564 356.294C543.075 356.99 545.675 357.777 548.246 358.624C550.03 359.199 551.785 359.804 553.478 360.379C557.742 361.893 565.091 358.927 572.682 352.662C577.219 348.939 581.181 344.581 583.51 340.706C584.477 339.133 585.112 337.71 585.475 336.469C586.504 332.777 585.294 330.477 581.423 328.782C579.124 327.783 576.16 327.087 573.076 326.451L572.078 326.239C569.114 325.634 566.029 324.998 563.337 324.06C555.595 321.366 547.762 319.187 540.111 317.583C529.768 315.495 519.757 314.435 510.261 314.435Z" fill="black"/>
<path d="M441.337 460.924C441.307 460.924 441.307 460.924 441.337 460.924C440.823 460.924 440.399 460.5 440.399 459.985C440.793 421.941 440.793 383.17 440.399 344.792C440.399 344.278 440.823 343.854 441.337 343.854C441.851 343.854 442.275 344.278 442.275 344.792C442.637 383.17 442.637 421.941 442.275 460.016C442.244 460.5 441.821 460.924 441.337 460.924Z" fill="black"/>
<path d="M474.302 451.178C473.788 451.178 473.364 450.754 473.364 450.24V436.802C473.364 436.287 473.788 435.863 474.302 435.863C474.816 435.863 475.239 436.287 475.239 436.802V450.24C475.239 450.754 474.816 451.178 474.302 451.178Z" fill="black"/>
<path d="M474.302 367.704C473.788 367.704 473.364 367.28 473.364 366.796C473.213 358.684 473.092 350.331 473.001 341.251C472.941 334.169 472.88 327.056 472.88 319.974C472.88 319.459 473.304 319.036 473.818 319.036C474.332 319.036 474.755 319.459 474.755 319.974C474.755 327.056 474.786 334.138 474.876 341.221C474.967 350.301 475.058 358.654 475.239 366.735C475.239 367.28 474.816 367.704 474.302 367.704Z" fill="black"/>
<path d="M507.267 353.449C506.753 353.449 506.329 353.025 506.329 352.51V313.528C506.329 313.013 506.753 312.589 507.267 312.589C507.781 312.589 508.204 313.013 508.204 313.528V352.51C508.204 353.025 507.811 353.449 507.267 353.449Z" fill="black"/>
<path d="M540.232 358.17C539.718 358.17 539.294 357.747 539.294 357.232V331.596C539.294 331.082 539.718 330.658 540.232 330.658C540.746 330.658 541.169 331.082 541.169 331.596V357.232C541.2 357.747 540.776 358.17 540.232 358.17Z" fill="black"/>
<path d="M499.01 342.553C481.106 342.553 463.112 342.432 445.117 342.22C444.603 342.22 444.18 341.796 444.18 341.281C444.18 340.767 444.603 340.343 445.117 340.343C482.316 340.797 519.576 340.767 555.837 340.283C556.351 340.283 556.775 340.706 556.775 341.221C556.775 341.735 556.351 342.159 555.837 342.159C537.147 342.432 518.124 342.553 499.01 342.553Z" fill="black"/>
<path d="M469.191 375.18H428.06C427.546 375.18 427.123 374.756 427.123 374.241C427.123 373.727 427.546 373.303 428.06 373.303H469.191C469.705 373.303 470.128 373.727 470.128 374.241C470.128 374.756 469.735 375.18 469.191 375.18Z" fill="black"/>
<path d="M465.592 408.17H426.851C426.337 408.17 425.913 407.746 425.913 407.232C425.913 406.717 426.337 406.293 426.851 406.293H465.592C466.106 406.293 466.53 406.717 466.53 407.232C466.53 407.746 466.106 408.17 465.592 408.17Z" fill="black"/>
<path d="M475.633 441.19H434.26C433.746 441.19 433.323 440.766 433.323 440.252C433.323 439.737 433.746 439.313 434.26 439.313H475.633C476.147 439.313 476.57 439.737 476.57 440.252C476.57 440.766 476.147 441.19 475.633 441.19Z" fill="black"/>
<path d="M603.107 483.381L589.558 512.557L605.436 522.545C600.567 535.257 613.027 541.492 613.027 541.492L635.649 498.272L603.107 483.381Z" fill="black"/>
<path d="M612.997 542.461C612.845 542.461 612.724 542.431 612.573 542.37C612.452 542.309 599.871 535.863 604.287 522.969L589.044 513.375C588.651 513.133 588.5 512.618 588.681 512.195L602.23 483.018C602.442 482.564 603.016 482.352 603.47 482.564L635.981 497.485C636.223 497.606 636.405 497.788 636.465 498.03C636.556 498.272 636.526 498.545 636.405 498.756L613.783 541.976C613.662 542.279 613.329 542.461 612.997 542.461ZM590.738 512.225L605.92 521.789C606.313 522.031 606.464 522.515 606.283 522.909C602.412 532.987 610.033 538.647 612.603 540.221L634.318 498.756L603.531 484.652L590.738 512.225Z" fill="black"/>
<path d="M605.406 523.514C605.164 523.514 604.952 523.423 604.77 523.241C604.408 522.878 604.377 522.273 604.74 521.91L609.186 517.249C609.549 516.886 610.154 516.855 610.517 517.219C610.88 517.582 610.91 518.187 610.547 518.55L606.101 523.211C605.889 523.423 605.648 523.514 605.406 523.514Z" fill="white"/>
<path d="M600.113 520.003C599.871 520.003 599.659 519.912 599.478 519.731C599.115 519.368 599.085 518.762 599.448 518.399L603.893 513.738C604.256 513.375 604.861 513.345 605.224 513.708C605.587 514.071 605.617 514.676 605.254 515.04L600.809 519.701C600.627 519.882 600.385 520.003 600.113 520.003Z" fill="white"/>
<path d="M606.192 481.838C607.886 482.927 609.579 483.986 611.212 485.016C609.549 487.376 607.855 489.767 606.192 492.128C602.895 496.819 599.569 501.511 596.302 506.202C593.762 509.834 591.222 513.466 588.681 517.128C583.51 513.768 578.308 510.258 573.227 506.565C573.076 506.444 572.894 506.353 572.743 506.202C560.676 497.394 549.214 487.497 540.262 476.087C539.506 475.118 538.78 474.18 538.085 473.212C530.856 463.405 525.534 452.479 523.114 440.222C522.146 435.228 521.632 429.961 521.693 424.513C521.753 418.521 522.419 412.77 523.538 407.231C526.018 395.306 530.796 384.32 537.117 374.241C538.115 372.637 539.173 371.093 540.232 369.52C542.621 366.1 545.161 362.77 547.883 359.562C553.327 353.085 559.315 346.971 565.696 341.251C568.146 339.042 570.656 336.862 573.197 334.774C576.009 332.474 578.882 330.174 581.756 327.994C582.663 327.268 583.6 326.572 584.568 325.876C592.401 320.004 600.416 321.275 606.192 325.906C610.728 329.538 613.843 335.289 614.418 341.281C614.993 347.516 612.755 354.023 606.404 358.775C606.343 358.836 606.252 358.896 606.192 358.957C600.022 363.587 593.581 368.672 587.562 374.302C582.3 379.205 577.37 384.501 573.197 390.252C569.356 395.549 566.18 401.208 564.033 407.292C562.339 412.044 561.281 417.038 561.039 422.304C560.737 428.781 561.886 434.774 564.124 440.282C566.271 445.609 569.416 450.512 573.166 455.052C578.852 461.862 585.99 467.885 593.369 473.272C597.663 476.299 601.988 479.174 606.192 481.838Z" fill="white"/>
<path d="M588.681 518.096C588.5 518.096 588.318 518.036 588.167 517.945C582.421 514.222 577.34 510.742 572.652 507.352L572.138 506.989C558.166 496.819 547.49 486.892 539.506 476.692C538.75 475.724 537.994 474.755 537.298 473.787C529.556 463.254 524.445 452.025 522.177 440.433C521.149 435.197 520.665 429.87 520.755 424.513C520.816 418.702 521.451 412.831 522.63 407.05C524.989 395.7 529.617 384.471 536.331 373.757C537.329 372.123 538.448 370.518 539.476 369.005C541.865 365.585 544.466 362.195 547.188 358.957C552.359 352.752 558.408 346.578 565.122 340.555C567.39 338.497 569.84 336.378 572.652 334.048C575.616 331.626 578.489 329.326 581.241 327.238C582.149 326.511 583.116 325.815 584.054 325.119C591.403 319.611 599.932 319.641 606.827 325.149C611.605 329.024 614.811 334.986 615.416 341.16C616.081 348.424 613.087 354.931 607.039 359.471L606.252 358.896L606.827 359.653C602.049 363.255 594.911 368.733 588.288 374.937C582.512 380.325 577.854 385.5 574.044 390.766C570.021 396.305 566.967 401.965 565.031 407.564C563.307 412.407 562.34 417.37 562.098 422.334C561.825 428.387 562.823 434.289 565.122 439.919C567.088 444.822 570.082 449.695 574.013 454.447C579.003 460.409 585.536 466.311 594.065 472.515C597.694 475.149 601.625 477.782 606.767 481.081C607.946 481.837 609.095 482.564 610.275 483.29L611.787 484.228C611.999 484.38 612.15 484.592 612.21 484.834C612.271 485.076 612.21 485.348 612.059 485.56L610.698 487.497C609.488 489.222 608.248 490.948 607.069 492.673C603.773 497.364 600.446 502.055 597.18 506.747C594.821 510.076 592.522 513.405 590.193 516.765L589.558 517.673C589.256 517.945 588.984 518.096 588.681 518.096ZM595.516 322.819C592.038 322.819 588.47 324.09 585.113 326.602C584.175 327.298 583.237 327.994 582.33 328.721C579.608 330.809 576.735 333.079 573.802 335.5C571.019 337.801 568.57 339.919 566.332 341.947C559.678 347.91 553.72 354.054 548.579 360.167C545.887 363.345 543.347 366.705 540.988 370.064C539.809 371.79 538.841 373.242 537.903 374.756C531.28 385.319 526.743 396.305 524.445 407.443C523.296 413.103 522.691 418.854 522.6 424.574C522.54 429.78 522.993 435.016 523.991 440.1C526.26 451.571 531.098 462.255 538.81 472.727C539.506 473.696 540.232 474.634 540.958 475.572C548.851 485.621 559.406 495.427 573.257 505.506L573.741 505.869C578.157 509.107 582.965 512.376 588.379 515.917L588.5 515.766C590.828 512.437 593.157 509.077 595.486 505.748C598.752 501.056 602.049 496.335 605.375 491.674C606.585 489.949 607.795 488.224 609.005 486.498L609.791 485.379L609.126 484.955C607.976 484.228 606.797 483.472 605.617 482.715C600.446 479.386 596.484 476.722 592.825 474.089C584.175 467.824 577.522 461.801 572.441 455.718C568.388 450.815 565.273 445.76 563.247 440.675C560.858 434.804 559.799 428.599 560.102 422.304C560.344 417.159 561.372 412.013 563.156 407.019C565.182 401.269 568.297 395.458 572.441 389.737C576.312 384.38 581.03 379.114 586.897 373.636C593.581 367.401 600.778 361.862 605.587 358.23L605.799 358.049C611.303 353.902 614.025 348 613.42 341.402C612.876 335.712 609.942 330.204 605.527 326.663C602.442 324.09 599.024 322.819 595.516 322.819Z" fill="black"/>
<path d="M540.232 477.055C539.718 477.055 539.294 476.632 539.294 476.117V369.52C539.294 369.005 539.718 368.582 540.232 368.582C540.746 368.582 541.169 369.005 541.169 369.52V476.117C541.2 476.632 540.776 477.055 540.232 477.055Z" fill="black"/>
<path d="M573.227 507.534C572.713 507.534 572.289 507.11 572.289 506.595V455.022C572.289 454.507 572.713 454.083 573.227 454.083C573.741 454.083 574.164 454.507 574.164 455.022V506.595C574.164 507.11 573.741 507.534 573.227 507.534Z" fill="black"/>
<path d="M573.227 391.13C572.713 391.13 572.289 390.706 572.289 390.191V347.97C572.289 347.455 572.713 347.032 573.227 347.032C573.741 347.032 574.164 347.455 574.164 347.97V390.191C574.164 390.736 573.741 391.13 573.227 391.13Z" fill="black"/>
<path d="M606.192 493.097C605.678 493.097 605.254 492.673 605.254 492.158V481.868C605.254 481.353 605.678 480.93 606.192 480.93C606.706 480.93 607.13 481.353 607.13 481.868V492.158C607.13 492.673 606.706 493.097 606.192 493.097Z" fill="black"/>
<path d="M587.562 375.179H537.117C536.603 375.179 536.179 374.755 536.179 374.241C536.179 373.726 536.603 373.303 537.117 373.303H587.562C588.076 373.303 588.5 373.726 588.5 374.241C588.5 374.755 588.076 375.179 587.562 375.179Z" fill="black"/>
<path d="M564.063 408.169H523.538C523.023 408.169 522.6 407.746 522.6 407.231C522.6 406.717 523.023 406.293 523.538 406.293H564.063C564.577 406.293 565.001 406.717 565.001 407.231C565.001 407.746 564.577 408.169 564.063 408.169Z" fill="black"/>
<path d="M564.154 441.19H523.084C522.57 441.19 522.146 440.766 522.146 440.252C522.146 439.737 522.57 439.313 523.084 439.313H564.154C564.668 439.313 565.092 439.737 565.092 440.252C565.092 440.766 564.668 441.19 564.154 441.19Z" fill="black"/>
<path d="M593.429 474.18H538.054C537.54 474.18 537.117 473.757 537.117 473.242C537.117 472.727 537.54 472.304 538.054 472.304H593.429C593.944 472.304 594.367 472.727 594.367 473.242C594.367 473.757 593.944 474.18 593.429 474.18Z" fill="black"/>
<path d="M596.302 507.171H572.713C572.199 507.171 571.775 506.747 571.775 506.232C571.775 505.718 572.199 505.294 572.713 505.294H596.302C596.816 505.294 597.24 505.718 597.24 506.232C597.24 506.747 596.816 507.171 596.302 507.171Z" fill="black"/>
<path d="M629.025 312.831C624.731 328.237 618.138 349.484 618.138 349.484L559.013 321.094C559.013 321.094 560.918 313.255 566.785 296.185C571.745 281.657 575.283 270.459 595.395 272.033C598.934 272.305 602.986 272.971 607.644 274.091C610.184 274.696 612.482 275.362 614.569 276.088C637.887 284.2 632.957 298.697 629.025 312.831Z" fill="white"/>
<path d="M618.138 350.422C617.987 350.422 617.866 350.392 617.745 350.331L558.619 321.941C558.226 321.76 558.015 321.306 558.105 320.882C558.136 320.791 560.101 312.801 565.878 295.882L566.089 295.307C571.019 280.87 574.89 269.46 595.455 271.125C599.175 271.427 603.349 272.123 607.855 273.213C610.456 273.848 612.754 274.514 614.841 275.241C638.249 283.352 634.197 297.759 630.326 311.711L629.933 313.104C625.698 328.328 619.106 349.574 619.015 349.786C618.924 350.059 618.743 350.271 618.501 350.361C618.38 350.392 618.259 350.422 618.138 350.422ZM560.101 320.579L617.533 348.152C618.924 343.703 624.398 325.846 628.088 312.589L628.481 311.197C631.808 299.333 635.376 288.285 622.069 280.598C620.013 279.417 617.14 278.025 614.206 276.996C612.18 276.3 609.942 275.664 607.371 275.029C602.986 273.97 598.903 273.273 595.274 272.971C576.191 271.457 572.682 281.718 567.813 295.882L567.602 296.457C562.884 310.44 560.736 318.249 560.101 320.579Z" fill="black"/>
<path d="M573.832 301.482C573.711 301.482 573.62 301.451 573.499 301.421C573.015 301.24 572.773 300.695 572.955 300.21L577.824 287.499C578.005 287.014 578.55 286.772 579.034 286.954C579.517 287.135 579.759 287.68 579.578 288.164L574.709 300.876C574.557 301.239 574.225 301.482 573.832 301.482Z" fill="black"/>
<path d="M590.556 338.588L570.868 284.018C570.747 283.655 570.384 283.382 569.991 283.382H511.682C511.38 283.382 511.078 283.534 510.926 283.776C510.745 284.018 510.715 284.351 510.805 284.623L530.494 339.193C530.615 339.556 530.977 339.829 531.371 339.829H589.679C589.982 339.829 590.284 339.677 590.435 339.435C590.617 339.193 590.647 338.86 590.556 338.588Z" fill="black"/>
<path d="M611.787 307.625C618.773 310.712 619.589 320.579 617.926 327.056C615.718 335.682 608.883 338.769 600.476 338.073C581.392 336.499 562.128 323.243 547.792 311.469C533.003 299.332 516.249 323.848 530.917 335.894C554.748 355.446 594.881 379.023 625.88 362.346C658.18 344.974 654.853 294.187 622.583 279.871L611.787 307.625Z" fill="white"/>
<path d="M602.411 368.975C573.529 368.975 543.8 347.698 530.312 336.62C525.685 332.807 523.568 327.298 524.536 321.487C525.534 315.434 529.707 310.047 534.939 308.079C539.445 306.385 544.224 307.323 548.397 310.743C568.539 327.268 585.596 335.894 600.567 337.135C606.736 337.649 614.63 336.287 617.049 326.814C618.44 321.306 618.168 311.469 611.424 308.503C610.94 308.291 610.728 307.746 610.94 307.262C611.152 306.778 611.696 306.566 612.18 306.778C619.136 309.865 620.799 319.641 618.864 327.298C616.747 335.652 610.184 339.829 600.415 339.011C585.052 337.74 567.662 328.963 547.218 312.196C542.56 308.382 538.357 308.806 535.635 309.835C531.008 311.59 527.318 316.372 526.411 321.79C525.927 324.817 525.927 330.567 531.522 335.168C548.549 349.12 591.736 379.629 625.457 361.529C639.762 353.842 648.23 338.164 647.564 320.61C646.899 302.964 637.524 287.922 623.007 281.112C622.735 280.991 622.553 280.9 622.281 280.719C621.797 280.507 621.525 279.992 621.737 279.508C621.948 279.024 622.493 278.812 622.977 279.024C638.582 285.955 648.714 301.845 649.439 320.549C650.135 338.83 641.274 355.174 626.334 363.194C618.682 367.28 610.577 368.975 602.411 368.975Z" fill="black"/>
<path d="M547.792 311.469C536.663 299.605 529.949 296.639 526.743 298.515C523.537 300.392 532.368 302.813 529.949 305.476C527.529 308.14 522.721 297.97 519.757 298.515C516.793 299.06 522.176 312.71 522.176 312.71C522.176 312.71 518.426 300.119 516.279 301.996C514.313 303.721 516.702 312.619 518.88 316.644C519.092 317.038 514.404 306.021 512.529 307.625C510.654 309.229 512.468 321.215 532.278 337.014L547.792 311.469Z" fill="white"/>
<path d="M532.308 337.982C532.096 337.982 531.885 337.922 531.733 337.771C516.612 325.725 511.138 315.132 511.047 309.714C511.017 308.412 511.349 307.444 511.954 306.929C512.227 306.718 512.952 306.233 513.95 306.839C514.253 307.02 514.585 307.323 514.948 307.716C514.434 304.902 514.495 302.359 515.674 301.3C516.128 300.906 516.672 300.785 517.217 300.937C517.489 301.028 517.731 301.179 518.003 301.391C517.882 300.18 517.973 299.151 518.336 298.515C518.608 298.001 519.061 297.668 519.606 297.577C521.481 297.244 523.356 299.393 525.322 301.633C526.532 303.025 528.225 304.962 529.011 304.962C529.042 304.962 529.132 304.962 529.253 304.811C529.435 304.599 529.435 304.478 529.435 304.448C529.374 303.903 528.195 302.965 527.409 302.359C526.169 301.391 524.989 300.483 525.08 299.272C525.11 298.637 525.503 298.092 526.259 297.638C530.463 295.186 538.145 299.726 548.458 310.743C548.821 311.106 548.79 311.711 548.428 312.075C548.065 312.438 547.46 312.408 547.097 312.044C533.76 297.819 528.739 298.364 527.197 299.272C526.985 299.393 526.925 299.484 526.925 299.484C527.015 299.666 527.983 300.422 528.558 300.876C529.828 301.875 531.159 302.904 531.28 304.266C531.31 304.72 531.249 305.386 530.614 306.052C530.161 306.536 529.616 306.808 528.981 306.808C528.981 306.808 528.981 306.808 528.951 306.808C527.288 306.808 525.685 304.962 523.84 302.813C522.6 301.391 520.725 299.181 519.878 299.363C519.394 299.908 519.908 302.874 521.027 306.627C521.904 308.745 522.6 310.985 523.023 312.377C523.175 312.862 522.902 313.376 522.418 313.527C521.935 313.709 521.42 313.437 521.239 312.983C520.816 311.863 519.999 309.714 519.273 307.353C518.275 304.932 517.338 303.146 516.763 302.722C515.916 303.842 516.763 308.806 518.305 313.013C518.941 314.254 519.424 315.404 519.666 316.1C519.666 316.1 519.666 316.13 519.697 316.13C519.787 316.433 519.818 316.645 519.818 316.766C519.757 317.159 519.424 317.462 519.031 317.523C518.638 317.583 518.245 317.371 518.063 317.038C517.701 316.372 517.277 315.434 516.884 314.375C515.704 311.984 514.011 308.927 513.073 308.412C512.983 308.594 512.892 309.018 512.922 309.744C512.952 310.864 513.89 321.064 532.883 336.227C533.276 336.56 533.366 337.135 533.034 337.559C532.852 337.861 532.58 337.982 532.308 337.982Z" fill="black"/>
<path d="M546.431 348.364C546.28 348.364 546.099 348.333 545.947 348.242C545.494 347.97 545.343 347.395 545.615 346.941L560.343 321.76C560.615 321.306 561.19 321.154 561.644 321.427C562.097 321.699 562.249 322.274 561.976 322.728L547.248 347.91C547.066 348.182 546.764 348.364 546.431 348.364Z" fill="black"/>
<path d="M608.188 234.715C602.109 237.59 599.69 241.04 599.69 241.04L601.262 243.159C601.262 243.159 598.662 249.424 604.256 252.632L599.024 272.456C597.754 272.275 596.514 272.124 595.335 272.033L595.305 272.093L594.427 287.832L602.23 283.292L609.458 279.055L614.479 276.088C613.208 275.665 611.908 275.241 610.487 274.878L615.719 253.812C618.138 252.632 620.104 250.211 621.555 246.155C624.822 237.166 614.267 231.839 608.188 234.715Z" fill="white"/>
<path d="M594.488 288.77C594.306 288.77 594.155 288.709 594.004 288.619C593.702 288.437 593.55 288.104 593.55 287.771L594.427 272.033C594.427 271.942 594.458 271.881 594.458 271.791C594.579 271.367 595.032 271.064 595.456 271.094C596.393 271.155 597.361 271.276 598.359 271.397L603.198 253.026C599.176 250.302 599.387 245.762 600.204 243.28L598.934 241.555C598.692 241.222 598.692 240.798 598.903 240.465C598.994 240.314 601.534 236.773 607.765 233.837C611.424 232.112 616.686 233.05 620.013 236.076C622.977 238.77 623.884 242.553 622.463 246.428C621.041 250.392 619.106 252.995 616.535 254.418L611.636 274.182C612.634 274.454 613.662 274.787 614.811 275.18C615.144 275.301 615.416 275.604 615.446 275.967C615.477 276.331 615.295 276.694 614.993 276.875L594.941 288.619C594.82 288.74 594.669 288.77 594.488 288.77ZM596.242 273.062L595.546 286.137L612.271 276.331C611.605 276.119 610.97 275.937 610.305 275.755C609.821 275.634 609.519 275.12 609.64 274.636L614.872 253.57C614.932 253.298 615.114 253.086 615.356 252.965C617.654 251.815 619.408 249.484 620.739 245.822C622.281 241.524 620.164 238.74 618.773 237.499C615.991 234.987 611.605 234.139 608.611 235.562C604.226 237.62 601.807 240.011 600.899 241.04L602.049 242.584C602.23 242.856 602.291 243.189 602.17 243.492C602.079 243.704 599.962 249.061 604.77 251.785C605.133 251.996 605.315 252.42 605.224 252.844L599.992 272.668C599.871 273.122 599.448 273.425 598.934 273.364C597.996 273.243 597.119 273.153 596.242 273.062Z" fill="black"/>
<path d="M621.193 237.862C619.771 236.258 617.987 235.259 615.991 234.714C614.025 232.535 611.545 230.568 608.974 230.447C607.462 230.386 606.162 231.264 606.071 232.868C605.95 235.229 608.339 236.107 609.125 238.044C609.186 238.195 609.277 238.346 609.398 238.437C610.607 240.858 613.299 243.098 614.993 244.218C616.958 245.519 615.265 248.213 613.299 248.092C611.575 247.971 613.601 252.511 614.388 253.207C614.72 253.51 615.083 253.752 615.477 253.964C618.017 252.844 620.104 250.392 621.616 246.185C622.463 243.764 622.16 240.707 621.193 237.862Z" fill="black"/>
<path d="M358.834 441.553H288.882V465.948H358.834V441.553Z" fill="white"/>
<path d="M358.834 466.916H288.882C288.368 466.916 287.944 466.493 287.944 465.978V441.584C287.944 441.069 288.368 440.646 288.882 440.646H358.834C359.348 440.646 359.771 441.069 359.771 441.584V465.978C359.771 466.493 359.348 466.916 358.834 466.916ZM289.819 465.01H357.896V442.492H289.819V465.01Z" fill="black"/>
<path d="M347.976 421.124H275.151V441.1H347.976V421.124Z" fill="white"/>
<path d="M347.946 442.038H275.151C274.637 442.038 274.214 441.614 274.214 441.1V421.124C274.214 420.609 274.637 420.186 275.151 420.186H347.976C348.491 420.186 348.914 420.609 348.914 421.124V441.1C348.884 441.644 348.46 442.038 347.946 442.038ZM276.089 440.161H347.039V422.062H276.089V440.161Z" fill="black"/>
<path d="M288.882 441.19C288.368 441.19 287.944 440.766 287.944 440.252V421.124C287.944 420.609 288.368 420.186 288.882 420.186C289.396 420.186 289.819 420.609 289.819 421.124V440.252C289.819 440.766 289.396 441.19 288.882 441.19Z" fill="black"/>
<path d="M295.112 441.19C294.597 441.19 294.174 440.766 294.174 440.252V421.124C294.174 420.609 294.597 420.186 295.112 420.186C295.626 420.186 296.049 420.609 296.049 421.124V440.252C296.049 440.766 295.626 441.19 295.112 441.19Z" fill="black"/>
<path d="M335.032 448.908H300.767V457.413H335.032V448.908Z" fill="black"/>
<path d="M335.033 458.351H300.767C300.253 458.351 299.83 457.927 299.83 457.413V448.908C299.83 448.393 300.253 447.97 300.767 447.97H335.033C335.547 447.97 335.97 448.393 335.97 448.908V457.413C335.97 457.927 335.547 458.351 335.033 458.351ZM301.705 456.474H334.095V449.846H301.705V456.474Z" fill="black"/>
<path d="M372.02 200.938C371.354 200.756 369.056 200.211 369.358 201.028C371.566 206.84 376.859 219.975 385.206 217.614C389.409 216.434 391.587 212.227 393.341 208.595C395.307 204.509 397.424 200.09 397.545 195.429C397.998 179.933 372.262 187.953 372.02 200.938Z" fill="white"/>
<path d="M379.339 209.624C388.654 218.946 389.954 225.241 393.009 223.516C396.033 221.791 389.531 210.713 389.531 210.713C389.531 210.713 392.797 216.797 395.398 215.495C397.999 214.194 394.974 206.173 394.974 206.173C394.974 206.173 397.575 213.77 399.541 212.469C401.507 211.167 403.321 205.296 395.156 190.132L379.339 209.624Z" fill="white"/>
<path d="M392.01 224.757C390.287 224.757 388.895 222.82 386.96 220.187C385.145 217.705 382.635 214.285 378.673 210.29C378.31 209.926 378.31 209.321 378.673 208.958C379.036 208.595 379.641 208.595 380.004 208.958C384.087 213.044 386.627 216.524 388.502 219.067C390.922 222.396 391.648 223.213 392.555 222.669C392.615 222.638 392.736 222.578 392.827 222.245C393.341 220.308 390.982 215.132 389.137 211.863C388.926 211.5 388.775 211.258 388.714 211.137C388.472 210.683 388.623 210.138 389.077 209.866C389.531 209.624 390.075 209.775 390.347 210.199C390.408 210.32 390.559 210.562 390.771 210.925C392.01 212.953 393.946 215.132 394.974 214.618C395.972 214.103 395.458 210.502 394.369 207.233C394.248 206.9 394.158 206.627 394.067 206.416C393.886 205.931 394.158 205.387 394.642 205.235C395.126 205.054 395.67 205.296 395.851 205.78C395.942 205.992 396.033 206.295 396.154 206.597C397.152 209.2 398.452 211.47 399.057 211.591C400.69 210.471 401.9 204.6 394.309 190.465C394.067 190.011 394.248 189.436 394.702 189.194C395.156 188.952 395.73 189.103 395.972 189.588C405.892 208.02 401.114 212.469 400.055 213.165C399.571 213.498 399.027 213.558 398.452 213.377C398.089 213.256 397.757 213.014 397.424 212.681C397.424 214.285 397.031 215.677 395.851 216.252C395.035 216.676 394.188 216.585 393.402 216.252C394.369 218.613 395.065 221.125 394.642 222.699C394.46 223.395 394.067 223.94 393.492 224.273C392.948 224.636 392.464 224.757 392.01 224.757Z" fill="black"/>
<path d="M395.942 189.678C377.403 152.481 340.144 128.964 298.711 128.268C289.728 128.087 280.595 128.995 271.522 130.992C271.038 131.083 270.554 131.204 270.071 131.325C263.75 132.808 260.393 139.315 259.939 144.703C259.727 146.943 259.969 149.152 260.665 151.119C262.6 156.597 266.955 160.078 272.853 160.865C275.272 161.198 277.782 161.077 280.293 160.472C315.919 152.148 353.148 170.52 368.814 204.146C368.935 204.388 369.147 204.569 369.389 204.66C369.479 204.69 369.57 204.69 369.661 204.69C369.842 204.69 369.994 204.63 370.145 204.539C378.522 199.333 387.565 194.884 395.519 190.98C395.73 190.859 395.912 190.677 396.003 190.435C396.063 190.163 396.063 189.89 395.942 189.678Z" fill="black"/>
<path d="M369.631 203.722C374.107 211.167 374.107 216.373 386.264 218.734L369.631 203.722Z" fill="white"/>
<path d="M386.264 219.672C386.204 219.672 386.143 219.672 386.083 219.642C375.891 217.645 373.774 213.498 371.052 208.262C370.387 206.961 369.691 205.629 368.814 204.176C368.542 203.722 368.693 203.147 369.116 202.875C369.57 202.602 370.145 202.754 370.417 203.177C371.324 204.66 372.02 206.053 372.715 207.354C375.377 212.53 377.131 215.919 386.415 217.766C386.93 217.856 387.262 218.371 387.141 218.855C387.111 219.37 386.718 219.672 386.264 219.672Z" fill="black"/>
<path d="M302.824 143.401C300.646 136.379 292.904 131.143 285.494 133.565C283.256 134.291 281.23 135.532 279.567 137.136C275.786 136.44 271.461 135.925 266.623 135.532C241.097 133.625 239.616 137.802 235.956 160.471C233.567 175.362 230.361 203.328 230.331 203.601C230.301 203.873 230.391 204.145 230.573 204.327C230.754 204.539 230.996 204.63 231.268 204.63L296.987 204.509C297.47 204.509 297.864 204.145 297.924 203.661C297.924 203.51 299.315 187.741 301.372 170.701C301.493 169.763 301.614 168.825 301.735 167.887C306.029 160.108 305.394 151.694 302.824 143.401Z" fill="black"/>
<path d="M286.734 183.867C286.583 183.655 286.311 183.504 286.039 183.474C266.199 182.142 248.9 186.894 235.019 190.707C232.025 191.524 229.212 192.311 226.641 192.947C214.363 195.974 206.621 196.064 203.596 193.189C202.387 192.039 201.993 190.374 202.447 188.104C204.504 177.541 222.105 170.974 230.543 167.826C243.154 163.104 256.249 160.804 270.585 161.016C271.583 161.016 272.399 160.956 273.065 160.835C276.784 160.32 279.9 158.534 282.077 155.659C284.527 152.39 285.585 148.032 284.98 143.643C283.952 136.47 278.75 131.476 271.734 130.962C271.371 130.932 270.978 130.932 270.585 130.932C263.115 130.871 255.675 131.386 248.507 132.475C234.777 134.503 221.349 138.619 208.617 144.703C192.013 152.602 172.204 166.888 172.143 189.89C172.083 212.257 192.104 224.878 210.976 225.392C211.459 225.392 211.974 225.423 212.457 225.423C222.438 225.423 232.388 222.699 242.035 220.065L245.09 219.248C255.463 216.403 266.441 213.8 276.754 213.8C276.905 213.8 277.026 213.831 277.178 213.8C277.571 213.8 277.934 213.558 278.055 213.165C279.446 209.109 280.807 204.872 282.107 200.483C282.652 198.667 283.226 196.851 283.801 195.035C284.89 191.646 285.978 188.165 286.886 184.654C286.976 184.382 286.916 184.109 286.734 183.867Z" fill="black"/>
<path d="M231.934 192.281C231.571 192.281 231.208 192.069 231.057 191.676C230.875 191.192 231.117 190.647 231.571 190.465C245.301 185.048 267.379 181.991 282.893 183.383C283.408 183.444 283.801 183.898 283.74 184.412C283.68 184.927 283.196 185.29 282.712 185.26C267.439 183.898 245.725 186.894 232.236 192.221C232.176 192.251 232.055 192.281 231.934 192.281Z" fill="white"/>
<path d="M276.875 213.104C285.071 213.286 298.65 215.102 299.437 212.741C300.253 210.38 292.541 207.475 292.541 207.475C292.541 207.475 299.951 210.985 301.765 209.169C303.58 207.353 294.144 201.028 294.144 201.028C294.144 201.028 303.156 206.324 304.85 204.599C306.544 202.874 296.715 196.306 296.201 194.218C295.686 192.13 303.701 193.038 304.336 191.191C304.971 189.345 292.602 183.625 285.978 184.503L276.875 213.104Z" fill="white"/>
<path d="M293.872 214.859C291.482 214.859 288.398 214.678 284.496 214.436C281.835 214.254 279.113 214.073 276.845 214.042C276.331 214.042 275.907 213.588 275.938 213.074C275.938 212.559 276.331 212.166 276.905 212.166C279.204 212.226 281.956 212.408 284.648 212.559C289.517 212.892 297.713 213.407 298.62 212.378C298.771 211.893 297.108 210.562 294.537 209.321C293.539 208.927 292.722 208.564 292.208 208.322C291.755 208.11 291.543 207.565 291.755 207.111C291.936 206.657 292.48 206.415 292.964 206.597C293.478 206.778 294.295 207.111 295.202 207.535C297.864 208.534 300.555 209.109 301.16 208.473C301.16 207.626 297.682 204.478 293.69 201.785C293.267 201.512 293.146 200.937 293.418 200.513C293.69 200.09 294.265 199.938 294.688 200.211C298.952 202.723 303.489 204.478 304.245 203.933C304.154 203.268 301.19 200.574 299.588 199.151C297.077 196.881 295.626 195.519 295.354 194.43C295.233 193.976 295.323 193.522 295.595 193.128C296.291 192.13 298.045 191.887 300.102 191.645C301.1 191.524 302.854 191.282 303.398 190.949C302.098 189.194 292.057 184.624 286.16 185.441C285.646 185.501 285.162 185.138 285.101 184.624C285.041 184.109 285.404 183.625 285.918 183.564C292.148 182.747 302.824 187.317 304.85 189.799C305.455 190.525 305.424 191.131 305.273 191.494C304.789 192.917 302.703 193.189 300.313 193.522C299.315 193.643 297.743 193.855 297.229 194.157C297.622 194.884 299.527 196.609 300.828 197.789C304.033 200.695 305.999 202.541 306.029 204.085C306.029 204.569 305.878 204.962 305.576 205.295C304.729 206.143 303.035 206.022 301.1 205.416C302.128 206.506 302.884 207.565 302.975 208.443C303.035 208.988 302.854 209.502 302.491 209.896C301.856 210.531 300.858 210.743 299.709 210.683C300.344 211.439 300.676 212.287 300.374 213.134C299.86 214.406 297.864 214.859 293.872 214.859Z" fill="black"/>
<path d="M279.597 130.478L284.225 115.526C290.666 115.889 291.876 109.201 291.876 109.201L294.356 108.262C294.356 108.262 294.205 104.086 290.666 98.3652C287.128 92.6449 275.363 91.404 273.186 100.665C272.188 104.872 272.551 107.99 273.942 110.26L266.532 131.9C260.514 132.021 254.556 132.506 248.659 133.383C251.229 138.438 255.584 142.463 260.877 144.763C263.175 145.762 265.625 146.428 268.196 146.731C274.063 147.427 279.386 146.216 284.073 143.734C289.275 141.01 293.721 136.713 297.35 131.688C297.925 130.901 298.378 130.054 298.681 129.176C292.39 129.085 286.009 129.509 279.597 130.478Z" fill="white"/>
<path d="M271.462 147.911C270.343 147.911 269.224 147.85 268.105 147.699C265.474 147.396 262.933 146.7 260.514 145.641C255.01 143.25 250.504 139.073 247.842 133.837C247.691 133.565 247.691 133.262 247.842 132.99C247.993 132.717 248.235 132.536 248.538 132.506C254.102 131.658 259.939 131.174 265.867 131.022L272.944 110.411C271.583 107.869 271.371 104.509 272.309 100.484C273.246 96.4585 276.059 93.7648 279.991 93.1293C284.406 92.4029 289.336 94.461 291.483 97.9113C295.112 103.783 295.324 108.111 295.324 108.293C295.324 108.686 295.082 109.049 294.719 109.201L292.723 109.957C292.058 112.5 289.789 116.434 284.95 116.555L280.989 129.388C287.037 128.571 292.995 128.208 298.741 128.329C299.044 128.329 299.316 128.48 299.497 128.753C299.679 128.995 299.709 129.328 299.618 129.6C299.255 130.569 298.771 131.476 298.167 132.354C294.114 137.923 289.547 142.07 284.557 144.703C280.353 146.791 275.968 147.911 271.462 147.911ZM250.11 134.14C252.621 138.438 256.522 141.888 261.21 143.916C263.448 144.884 265.837 145.55 268.286 145.823C273.639 146.458 278.781 145.49 283.62 142.947C288.338 140.466 292.693 136.501 296.594 131.174C296.836 130.841 297.048 130.478 297.259 130.115C291.574 130.054 285.706 130.508 279.779 131.386C279.446 131.446 279.144 131.325 278.932 131.083C278.72 130.841 278.66 130.508 278.751 130.205L283.378 115.254C283.499 114.83 283.831 114.527 284.315 114.588C289.88 114.891 290.969 109.261 290.999 109.019C291.06 108.686 291.271 108.414 291.604 108.323L293.388 107.657C293.177 106.295 292.451 102.996 289.91 98.8798C288.156 96.0348 284.013 94.3399 280.323 94.9755C278.478 95.2781 275.212 96.4585 274.154 100.908C273.277 104.691 273.458 107.627 274.789 109.806C274.94 110.048 274.97 110.32 274.879 110.593L267.47 132.233C267.349 132.596 266.986 132.869 266.593 132.869C260.937 132.99 255.433 133.414 250.11 134.14Z" fill="black"/>
<path d="M278.025 93.9465C275.666 95.823 273.76 98.1838 273.186 100.666C272.157 105.024 272.581 108.232 274.093 110.532C274.516 110.563 274.97 110.563 275.424 110.502C276.452 110.351 280.625 107.657 279.113 106.81C277.42 105.871 277.42 102.693 279.809 102.663C282.954 102.603 289.668 101.664 290.001 97.5179C290.001 97.5179 290.001 97.5179 290.001 97.4876C286.462 94.5518 282.228 92.7964 278.025 93.9465Z" fill="black"/>
<path d="M274.335 103.087C274.214 102.512 273.609 102.027 272.944 102.391C257.853 110.26 241.552 101.029 225.765 103.026C221.954 103.511 216.48 105.72 217.599 110.623C218.658 115.224 224.041 114.891 227.61 114.588C235.17 113.922 239.314 117.978 245.695 121.125C249.929 123.214 254.193 123.547 258.367 121.095C261.119 119.461 263.448 117.04 265.806 114.921C268.468 112.5 272.762 109.866 274.637 106.779C275.484 105.387 275.242 103.783 274.335 103.087Z" fill="black"/>
</svg>
