<svg width="769" height="830" viewBox="0 0 769 830" fill="none" xmlns="http://www.w3.org/2000/svg">
<path d="M678 510.148C678 663.301 553.898 787.148 401 787.148C248.102 787.148 124 663.301 124 510.148C124 356.995 248.102 233.148 401 233.148C553.898 233.148 678 328.454 678 510.148Z" fill="#F3B5AF"/>
<path d="M321.185 87.8247V676.677" stroke="black" stroke-miterlimit="10" stroke-linecap="round" stroke-linejoin="round"/>
<path d="M339.013 134.414H321.949" stroke="black" stroke-miterlimit="10" stroke-linecap="round" stroke-linejoin="round"/>
<path d="M411.344 134.414H339.014V218.936H411.344V134.414Z" stroke="black" stroke-miterlimit="10" stroke-linecap="round" stroke-linejoin="round"/>
<path d="M355.823 152.489H385.876" stroke="black" stroke-miterlimit="10" stroke-linecap="round" stroke-linejoin="round"/>
<path d="M355.823 164.709C362.699 164.709 369.576 164.709 376.452 164.709" stroke="black" stroke-miterlimit="10" stroke-linecap="round" stroke-linejoin="round"/>
<path d="M365.755 185.076H355.823V205.443H365.755V185.076Z" fill="black"/>
<path d="M380.273 180.239H370.34V205.188H380.273V180.239Z" fill="black"/>
<path d="M394.79 186.858H384.857V205.443H394.79V186.858Z" fill="black"/>
<path d="M325.515 73.5684C333.665 94.6988 321.695 118.884 321.695 118.884C321.695 118.884 296.99 108.701 288.84 87.3159C280.691 66.1855 292.661 42 292.661 42C292.661 42 317.365 52.4379 325.515 73.5684Z" fill="white" stroke="black" stroke-miterlimit="10" stroke-linecap="round" stroke-linejoin="round"/>
<path d="M400.138 272.653C370.085 300.148 322.204 296.329 322.204 296.329C322.204 296.329 322.713 248.213 352.766 220.973C382.819 193.732 430.7 197.296 430.7 197.296C430.7 197.296 430.191 245.413 400.138 272.653Z" fill="white" stroke="black" stroke-miterlimit="10" stroke-linecap="round" stroke-linejoin="round"/>
<path d="M321.695 118.884L307.178 80.4419" stroke="black" stroke-miterlimit="10" stroke-linecap="round" stroke-linejoin="round"/>
<path d="M322.459 296.583L387.658 233.701" stroke="black" stroke-miterlimit="10" stroke-linecap="round" stroke-linejoin="round"/>
<path d="M307.942 520.363C275.597 559.059 216.255 562.624 216.255 562.624C216.255 562.624 209.124 503.56 241.214 464.863C273.305 426.167 332.901 422.603 332.901 422.603C332.901 422.603 340.287 481.666 307.942 520.363Z" fill="white" stroke="black" stroke-miterlimit="10" stroke-linecap="round" stroke-linejoin="round"/>
<path d="M343.598 320.26H232.81V401.981H343.598V320.26Z" fill="white" stroke="black" stroke-miterlimit="10" stroke-linecap="round" stroke-linejoin="round"/>
<path d="M232.81 320.26H215.746" stroke="black" stroke-miterlimit="10" stroke-linecap="round" stroke-linejoin="round"/>
<path d="M254.967 383.906L269.229 362.52L284.256 366.848L315.073 336.298" stroke="black" stroke-miterlimit="10" stroke-linecap="round" stroke-linejoin="round"/>
<path d="M307.178 336.299L317.111 334.007V342.918" stroke="black" stroke-miterlimit="10" stroke-linecap="round" stroke-linejoin="round"/>
<path d="M271.776 334.008H254.967V342.918H271.776V334.008Z" stroke="black" stroke-miterlimit="10" stroke-linecap="round" stroke-linejoin="round"/>
<path d="M215.746 221.481V686.86" stroke="black" stroke-miterlimit="10" stroke-linecap="round" stroke-linejoin="round"/>
<path d="M196.39 371.431C219.311 397.144 215.491 437.877 215.491 437.877C215.491 437.877 174.741 436.604 152.074 410.891C129.153 385.178 132.973 344.445 132.973 344.445C132.973 344.445 173.468 345.463 196.39 371.431Z" fill="white" stroke="black" stroke-miterlimit="10" stroke-linecap="round" stroke-linejoin="round"/>
<path d="M251.402 200.605C242.488 221.99 216.764 231.665 216.764 231.665C216.764 231.665 205.558 206.461 214.472 185.076C223.386 163.691 249.109 154.017 249.109 154.017C249.109 154.017 260.316 179.22 251.402 200.605Z" fill="white" stroke="black" stroke-miterlimit="10" stroke-linecap="round" stroke-linejoin="round"/>
<path d="M189.768 221.227C181.363 209.516 184.674 192.713 184.674 192.713C184.674 192.713 201.483 195.005 209.888 206.715C218.292 218.426 214.982 235.229 214.982 235.229C214.982 235.229 198.172 232.938 189.768 221.227Z" fill="white" stroke="black" stroke-miterlimit="10" stroke-linecap="round" stroke-linejoin="round"/>
<path d="M216.255 562.369L271.776 490.577" stroke="black" stroke-miterlimit="10" stroke-linecap="round" stroke-linejoin="round"/>
<path d="M179.326 391.034L215.491 437.622" stroke="black" stroke-miterlimit="10" stroke-linecap="round" stroke-linejoin="round"/>
<path d="M199.701 214.098L214.982 235.229" stroke="black" stroke-miterlimit="10" stroke-linecap="round" stroke-linejoin="round"/>
<path d="M237.394 185.076L216.51 231.665" stroke="black" stroke-miterlimit="10" stroke-linecap="round" stroke-linejoin="round"/>
<path d="M343.598 122.449L350.729 114.047" stroke="black" stroke-miterlimit="10" stroke-linecap="round" stroke-linejoin="round"/>
<path d="M380.018 118.121L393.771 114.047" stroke="black" stroke-miterlimit="10" stroke-linecap="round" stroke-linejoin="round"/>
<path d="M387.149 71.5317L389.951 80.4422" stroke="black" stroke-miterlimit="10" stroke-linecap="round" stroke-linejoin="round"/>
<path d="M518.058 306.003L520.604 314.659" stroke="black" stroke-miterlimit="10" stroke-linecap="round" stroke-linejoin="round"/>
<path d="M553.459 284.618L548.875 296.584" stroke="black" stroke-miterlimit="10" stroke-linecap="round" stroke-linejoin="round"/>
<path d="M551.167 231.665L541.998 235.229" stroke="black" stroke-miterlimit="10" stroke-linecap="round" stroke-linejoin="round"/>
<path d="M592.68 456.463L601.34 464.61" stroke="black" stroke-miterlimit="10" stroke-linecap="round" stroke-linejoin="round"/>
<path d="M601.34 490.322L597.01 498.468" stroke="black" stroke-miterlimit="10" stroke-linecap="round" stroke-linejoin="round"/>
<path d="M638.524 407.837L632.921 415.22" stroke="black" stroke-miterlimit="10" stroke-linecap="round" stroke-linejoin="round"/>
<path d="M244.016 432.531L239.941 442.969" stroke="black" stroke-miterlimit="10" stroke-linecap="round" stroke-linejoin="round"/>
<path d="M263.372 432.532L271.776 428.968" stroke="black" stroke-miterlimit="10" stroke-linecap="round" stroke-linejoin="round"/>
<path d="M238.413 234.975L231.282 244.14" stroke="black" stroke-miterlimit="10" stroke-linecap="round" stroke-linejoin="round"/>
<path d="M274.578 243.885L284.256 241.085" stroke="black" stroke-miterlimit="10" stroke-linecap="round" stroke-linejoin="round"/>
<path d="M280.691 682.023L285.02 694.243" stroke="black" stroke-miterlimit="10" stroke-linecap="round" stroke-linejoin="round"/>
<path d="M267.447 688.134L271.777 694.244" stroke="black" stroke-miterlimit="10" stroke-linecap="round" stroke-linejoin="round"/>
<path d="M393.771 676.932L387.149 694.244" stroke="black" stroke-miterlimit="10" stroke-linecap="round" stroke-linejoin="round"/>
<path d="M298.009 694.243L350.729 692.461C350.729 692.461 349.201 667.257 349.456 655.037C349.711 642.817 312.781 649.946 312.781 649.946L312.272 676.168C312.017 676.168 297.5 681.514 298.009 694.243Z" fill="white" stroke="black" stroke-miterlimit="10" stroke-linecap="round" stroke-linejoin="round"/>
<path d="M312.526 674.131H323.223" stroke="black" stroke-miterlimit="10" stroke-linecap="round" stroke-linejoin="round"/>
<path d="M575.616 689.661L605.669 646.382C605.669 646.382 584.785 632.634 574.852 624.997C565.174 617.614 548.875 651.474 548.875 651.474L569.504 667.512C569.504 667.512 565.174 682.278 575.616 689.661Z" fill="white" stroke="black" stroke-miterlimit="10" stroke-linecap="round" stroke-linejoin="round"/>
<path d="M568.231 665.985L574.598 657.329" stroke="black" stroke-miterlimit="10" stroke-linecap="round" stroke-linejoin="round"/>
<path d="M436.558 418.275C428.917 410.637 413.382 409.364 405.996 418.275C349.965 484.976 315.837 573.571 310.234 660.384C323.478 663.948 353.021 667.512 353.021 666.748C356.842 589.61 386.64 507.888 436.558 448.825C444.199 439.914 445.472 427.185 436.558 418.275Z" fill="black"/>
<path d="M552.44 660.639C562.373 650.201 572.56 637.981 582.238 627.288C516.529 566.188 478.581 488.794 476.034 398.926C475.27 371.177 431.974 370.922 432.738 398.926C435.794 499.996 478.072 591.901 552.44 660.639Z" fill="black"/>
<path d="M437.323 446.024L427.899 442.969" stroke="white" stroke-miterlimit="10" stroke-linecap="round" stroke-linejoin="round"/>
<path d="M527.481 455.954C518.312 456.972 508.889 458.245 499.72 459.518C499.72 459.772 499.72 460.027 499.465 460.282C498.956 464.355 499.975 468.174 501.758 471.738C502.776 473.52 504.304 474.284 505.832 474.284C511.945 471.992 518.312 471.229 524.679 471.229C526.971 466.392 527.735 461.3 527.481 455.954Z" fill="white"/>
<path d="M394.026 372.704C389.951 388.488 378.999 401.472 363.718 407.582C346.145 414.71 327.298 407.327 309.47 411.655C312.781 421.839 316.092 432.022 319.403 442.205C332.137 442.714 342.07 443.478 353.276 442.46C364.737 441.441 375.943 437.877 385.876 432.276C405.232 421.329 415.928 401.472 421.531 380.087C426.625 359.975 399.119 352.592 394.026 372.704Z" fill="black" stroke="black" stroke-miterlimit="10" stroke-linecap="round" stroke-linejoin="round"/>
<path d="M476.543 408.601L406.25 418.275C383.583 364.049 396.063 358.957 411.089 353.611C413.636 352.592 416.183 351.829 418.73 350.556C421.531 349.283 424.078 348.264 426.37 347.501C448.783 340.882 456.933 359.975 460.244 370.159C463.555 381.36 476.543 408.601 476.543 408.601Z" fill="white" stroke="black" stroke-miterlimit="10" stroke-linecap="round" stroke-linejoin="round"/>
<path d="M532.065 458.753C523.915 410.892 493.608 369.394 449.292 349.028C429.936 340.117 418.475 368.885 437.831 377.796C471.959 393.325 493.608 425.403 499.465 462.827C510.417 461.808 521.114 460.026 532.065 458.753Z" fill="black" stroke="black" stroke-miterlimit="10" stroke-linecap="round" stroke-linejoin="round"/>
<path d="M309.215 411.656C302.084 412.42 287.567 418.529 285.275 424.639C282.728 430.75 289.35 425.912 292.916 424.639C292.916 424.639 282.473 428.713 284.766 433.041C287.058 437.369 292.151 431.259 295.208 431.004C295.208 431.004 286.294 435.332 288.841 438.642C291.387 441.951 297.755 433.805 301.575 436.605C305.395 439.405 296.99 444.497 299.792 446.025C302.594 447.552 305.904 442.97 319.657 442.46" fill="white"/>
<path d="M309.215 411.656C302.084 412.42 287.567 418.529 285.275 424.639C282.728 430.75 289.35 425.912 292.916 424.639C292.916 424.639 282.473 428.713 284.766 433.041C287.058 437.369 292.151 431.259 295.208 431.004C295.208 431.004 286.294 435.332 288.841 438.642C291.387 441.951 297.755 433.805 301.575 436.605C305.395 439.405 296.99 444.497 299.792 446.025C302.594 447.552 305.904 442.97 319.657 442.46" stroke="black" stroke-miterlimit="10" stroke-linecap="round" stroke-linejoin="round"/>
<path d="M499.465 463.082C498.192 473.519 501.503 480.393 507.615 482.43Z" fill="white"/>
<path d="M499.465 463.082C498.192 473.519 501.503 480.393 507.615 482.43" stroke="black" stroke-miterlimit="10" stroke-linecap="round" stroke-linejoin="round"/>
<path d="M503.286 470.719C505.578 476.065 511.945 490.067 517.293 490.322C522.642 490.577 515.765 478.357 515.765 478.357C515.765 478.357 521.114 490.322 526.717 489.813C529.518 489.558 523.66 476.575 523.66 476.575C523.66 476.575 528.245 488.54 531.81 488.031C535.631 487.522 530.282 476.575 531.301 472.756C532.065 470.21 533.593 465.373 532.32 459.008" fill="white"/>
<path d="M503.286 470.719C505.578 476.065 511.945 490.067 517.293 490.322C522.642 490.577 515.765 478.357 515.765 478.357C515.765 478.357 521.114 490.322 526.717 489.813C529.518 489.558 523.66 476.575 523.66 476.575C523.66 476.575 528.245 488.54 531.81 488.031C535.631 487.522 530.282 476.575 531.301 472.756C532.065 470.21 533.593 465.373 532.32 459.008" stroke="black" stroke-miterlimit="10" stroke-linecap="round" stroke-linejoin="round"/>
<path d="M386.64 324.079C377.471 338.336 380.018 327.643 359.134 334.008C337.995 340.372 344.107 346.737 337.485 351.828C330.864 356.92 323.987 364.812 352.512 362.012C381.037 359.211 388.932 354.374 393.007 350.301C397.082 346.228 408.288 341.645 411.09 330.698C413.891 319.496 386.64 324.079 386.64 324.079Z" fill="black"/>
<path d="M424.588 348.01L417.711 339.354L410.835 330.698C412.363 327.897 412.618 324.079 411.344 318.732C408.288 307.531 393.771 309.567 389.696 316.696C385.621 323.824 385.621 329.17 385.621 329.17L388.677 330.189C388.677 330.189 390.46 338.335 398.355 337.572L406.505 347.755L410.835 353.356C410.58 353.356 410.58 353.356 410.326 353.61L411.854 372.45L424.843 349.028L425.607 347.5C425.607 347.5 425.097 347.755 424.588 348.01Z" fill="white" stroke="black" stroke-miterlimit="10" stroke-linecap="round" stroke-linejoin="round"/>
<path d="M402.175 310.077C397.591 310.331 393.261 312.113 389.95 316.441C393.261 319.751 400.393 321.533 403.449 321.533C406.25 321.533 406.505 325.352 404.468 326.625C402.685 327.643 408.033 330.953 409.307 330.953C409.816 330.953 410.325 330.953 410.835 330.953C412.617 328.152 412.872 324.079 411.599 318.733C411.344 317.714 411.089 316.696 410.835 315.423C408.033 313.386 404.977 311.604 402.175 310.077Z" fill="black"/>
<path d="M454.386 639.253C413.891 600.047 415.165 533.092 415.165 533.092C415.165 533.092 481.892 530.037 522.387 569.497C562.882 608.958 561.609 675.658 561.609 675.658C561.609 675.658 494.881 678.459 454.386 639.253Z" fill="white" stroke="black" stroke-miterlimit="10" stroke-linecap="round" stroke-linejoin="round"/>
<path d="M535.631 510.179H561.609" stroke="black" stroke-miterlimit="10" stroke-linecap="round" stroke-linejoin="round"/>
<path d="M457.58 607.274H535.768V510.278H457.58V607.274Z" fill="white" stroke="black" stroke-miterlimit="10" stroke-linecap="round" stroke-linejoin="round"/>
<path d="M523.406 556.513C523.406 571.279 511.436 583.499 496.409 583.499C481.638 583.499 469.413 571.534 469.413 556.513C469.413 541.493 481.383 529.527 496.409 529.527C511.436 529.527 523.406 539.456 523.406 556.513Z" stroke="black" stroke-miterlimit="10" stroke-linecap="round" stroke-linejoin="round"/>
<path d="M515.765 536.655L496.664 556.513H523.406" stroke="black" stroke-miterlimit="10" stroke-linecap="round" stroke-linejoin="round"/>
<path d="M473.743 542.511L496.664 556.513" stroke="black" stroke-miterlimit="10" stroke-linecap="round" stroke-linejoin="round"/>
<path d="M510.163 588.336H521.623" stroke="black" stroke-miterlimit="10" stroke-linecap="round" stroke-linejoin="round"/>
<path d="M510.163 593.173H521.623" stroke="black" stroke-miterlimit="10" stroke-linecap="round" stroke-linejoin="round"/>
<path d="M561.609 694.243V362.521" stroke="black" stroke-miterlimit="10" stroke-linecap="round" stroke-linejoin="round"/>
<path d="M640.307 593.173C609.999 620.923 561.864 617.104 561.864 617.104C561.864 617.104 562.373 568.733 592.68 540.984C622.988 513.234 671.124 517.053 671.124 517.053C671.124 517.053 670.36 565.424 640.307 593.173Z" fill="white" stroke="black" stroke-miterlimit="10" stroke-linecap="round" stroke-linejoin="round"/>
<path d="M599.812 362.52C588.606 383.651 561.354 391.034 561.354 391.034C561.354 391.034 552.186 364.303 563.392 343.172C574.598 322.042 601.849 314.659 601.849 314.659C601.849 314.659 610.763 341.39 599.812 362.52Z" fill="white" stroke="black" stroke-miterlimit="10" stroke-linecap="round" stroke-linejoin="round"/>
<path d="M561.609 617.104L631.902 552.694" stroke="black" stroke-miterlimit="10" stroke-linecap="round" stroke-linejoin="round"/>
<path d="M510.162 620.923L561.609 675.659" stroke="black" stroke-miterlimit="10" stroke-linecap="round" stroke-linejoin="round"/>
<path d="M578.673 349.791L561.354 391.034" stroke="black" stroke-miterlimit="10" stroke-linecap="round" stroke-linejoin="round"/>
<path d="M553.459 510.179V519.344" stroke="black" stroke-miterlimit="10" stroke-linecap="round" stroke-linejoin="round"/>
</svg>
