<svg width="50" height="34" viewBox="0 0 50 34" fill="none" xmlns="http://www.w3.org/2000/svg">
<path d="M16.6342 7.47867e-06C13.3442 7.43944e-06 10.1282 0.975583 7.39272 2.80337C4.65725 4.63115 2.52521 7.22905 1.26621 10.2685C0.00720727 13.308 -0.322204 16.6526 0.319628 19.8793C0.96146 23.106 2.54571 26.0699 4.87204 28.3963C7.19836 30.7226 10.1623 32.3068 13.389 32.9487C16.6157 33.5905 19.9603 33.2611 22.9998 32.0021C26.0393 30.7431 28.6372 28.6111 30.4649 25.8756C32.2927 23.1401 33.2683 19.9241 33.2683 16.6342H24.913C24.913 18.2716 24.4275 19.8722 23.5178 21.2336C22.6081 22.5951 21.3151 23.6562 19.8023 24.2828C18.2896 24.9094 16.625 25.0734 15.019 24.7539C13.4131 24.4345 11.9379 23.646 10.7801 22.4882C9.62231 21.3304 8.83382 19.8552 8.51438 18.2493C8.19494 16.6433 8.35889 14.9787 8.9855 13.466C9.6121 11.9532 10.6732 10.6602 12.0347 9.75054C13.3961 8.84085 14.9968 8.35531 16.6342 8.35531V7.47867e-06Z" fill="#1D1D1B"/>
<path d="M33.114 33.2683C36.4039 33.2683 39.6199 32.2927 42.3554 30.4649C45.0909 28.6372 47.2229 26.0393 48.4819 22.9998C49.7409 19.9603 50.0703 16.6157 49.4285 13.389C48.7867 10.1623 47.2024 7.19837 44.8761 4.87204C42.5498 2.54571 39.5859 0.961461 36.3591 0.319628C33.1324 -0.322204 29.7879 0.00720692 26.7484 1.26621C23.7089 2.5252 21.111 4.65724 19.2832 7.39272C17.4554 10.1282 16.4798 13.3442 16.4798 16.6342H24.8351C24.8351 14.9968 25.3207 13.3961 26.2304 12.0347C27.1401 10.6732 28.433 9.6121 29.9458 8.9855C31.4586 8.35889 33.1232 8.19494 34.7291 8.51438C36.335 8.83382 37.8102 9.62231 38.968 10.7801C40.1258 11.9379 40.9143 13.4131 41.2338 15.019C41.5532 16.625 41.3892 18.2896 40.7626 19.8023C40.136 21.3151 39.0749 22.6081 37.7135 23.5178C36.352 24.4275 34.7514 24.913 33.114 24.913V33.2683Z" fill="#1D1D1B"/>
</svg>
